<?xml version="1.0" encoding="UTF-8"?>
<svg version="1.1" xmlns="http://www.w3.org/2000/svg" width="1024" height="1024">
<path d="M0 0 C10.12759385 -0.04648925 20.255162 -0.08195315 30.38284111 -0.10362434 C35.08632064 -0.11402922 39.78972677 -0.12812778 44.49316406 -0.15087891 C49.03839965 -0.17272539 53.58356496 -0.18459337 58.12884903 -0.18975449 C59.8566511 -0.19342915 61.58444965 -0.20060446 63.31222153 -0.21146011 C80.68343522 -0.31619138 92.38559602 1.27764862 105.453125 13.47265625 C109.8269768 17.81296624 113.93566751 22.37079418 118 27 C118.61617188 27.70125 119.23234375 28.4025 119.8671875 29.125 C120.99086464 30.40920245 122.1119932 31.6956397 123.23046875 32.984375 C125.25114956 35.28607764 127.31312618 37.54764379 129.375 39.8125 C132.55759788 43.33010818 135.59117962 46.92747051 138.5625 50.625 C141.83753079 54.67898777 145.28356089 58.34026014 149.0234375 61.9609375 C151.94960739 64.9796345 154.48572004 68.2729699 157.04296875 71.60546875 C159.20827905 74.25484044 161.56448874 76.59785191 164 79 C169.17884229 84.5701696 174.24540541 90.24046127 179.23046875 95.984375 C181.25114956 98.28607764 183.31312618 100.54764379 185.375 102.8125 C188.48528851 106.25378205 191.46478312 109.76321298 194.375 113.375 C198.53963369 118.52254549 202.95305141 123.38352388 207.44921875 128.23828125 C210.70665033 131.76508696 213.86413044 135.36538379 217 139 C218.01940391 140.16547598 219.03894847 141.33082893 220.05859375 142.49609375 C221.16434817 143.76798087 222.2698149 145.04011815 223.375 146.3125 C223.91181396 146.92399902 224.44862793 147.53549805 225.00170898 148.16552734 C227.24013897 150.75482306 228.9066719 152.72001569 230 156 C230.66 156 231.32 156 232 156 C233.41015625 157.3984375 233.41015625 157.3984375 235.0625 159.375 C237.72309886 162.50640441 240.42084708 165.58671207 243.1875 168.625 C246.91431538 172.74679411 250.52869009 176.95246755 254.125 181.1875 C257.74883479 185.44910253 261.41574817 189.55871466 265.44140625 193.44921875 C267.74873064 195.74497761 269.8412048 198.21150559 271.9609375 200.6796875 C273.56580515 202.5059162 275.19276539 204.29388566 276.8515625 206.0703125 C277.35010742 206.60567627 277.84865234 207.14104004 278.36230469 207.69262695 C279.35650436 208.75726782 280.35445294 209.81842241 281.35644531 210.87573242 C283.5704425 213.25238585 284.95911907 214.87735721 286 218 C286.66 218 287.32 218 288 218 C289.234375 219.22265625 289.234375 219.22265625 290.75 221.0625 C294.38622709 225.34041423 298.16814626 229.4606333 302 233.5625 C302.87156738 234.49944702 302.87156738 234.49944702 303.76074219 235.45532227 C307.26403515 239.2040031 310.83351086 242.87328484 314.47680664 246.48608398 C315.80999163 247.81114892 317.12529841 249.15415221 318.4375 250.5 C319.283125 251.325 320.12875 252.15 321 253 C321.78890625 253.78310547 321.78890625 253.78310547 322.59375 254.58203125 C335.27979656 266.48863851 350.775795 272.66064246 368.10742188 272.47314453 C377.96721719 272.10509325 386.96728695 269.21559684 394 262 C397.38788443 257.12549165 398.76985223 251.74068961 400 246 C399.34 246 398.68 246 398 246 C398.20625 245.175 398.4125 244.35 398.625 243.5 C399.31244278 237.08386738 397.23881625 231.53297776 394 226 C393.34 225.67 392.68 225.34 392 225 C391.54625 224.05125 391.0925 223.1025 390.625 222.125 C389.00930328 219.01789093 388.0088096 217.6924554 385 216 C384.01 216 383.02 216 382 216 C381.9175 215.38125 381.835 214.7625 381.75 214.125 C381.21289209 211.85719511 381.21289209 211.85719511 379.18945312 210.98901367 C378.46693359 210.66263916 377.74441406 210.33626465 377 210 C376.38060547 209.67942627 375.76121094 209.35885254 375.12304688 209.02856445 C370.68812341 206.75140183 366.21394515 204.8193622 361.5 203.1875 C360.77482178 202.93524658 360.04964355 202.68299316 359.30249023 202.4230957 C344.80745067 197.47434538 330.01832567 193.50367725 315.20043945 189.65722656 C296.45244105 184.78772353 278.3669006 179.74085706 261.1875 170.6015625 C258.23361309 168.96539515 258.23361309 168.96539515 255.75 168.4609375 C253.43928842 167.85231257 252.63530887 166.73478022 251 165 C249.11977971 163.56267605 247.22184938 162.14839673 245.3125 160.75 C234.55177197 152.77114612 234.55177197 152.77114612 231 149 C231 148.34 231 147.68 231 147 C229.68 147 228.36 147 227 147 C226.01 144.525 226.01 144.525 225 142 C224.34 142 223.68 142 223 142 C222.67 141.01 222.34 140.02 222 139 C221.01 138.34 220.02 137.68 219 137 C219 136.34 219 135.68 219 135 C217.43698045 132.68626186 215.84343554 130.43303151 214.1875 128.1875 C206 117.00998573 206 117.00998573 206 114 C204.68 113.67 203.36 113.34 202 113 C202 112.01 202 111.02 202 110 C201.53693335 107.18260501 200.86348636 104.55372648 200.02734375 101.8203125 C194.91729488 84.49376686 194.96339381 66.72360517 202 50 C202.43441406 48.948125 202.86882812 47.89625 203.31640625 46.8125 C212.79258332 26.0783006 230.12085188 12.35673933 251 4 C259.94195273 1.030902 268.61349656 -0.15376872 278.00401306 -0.12025452 C278.88795779 -0.12110894 279.77190252 -0.12196337 280.68263346 -0.12284368 C283.63211182 -0.12448528 286.58153278 -0.11899878 289.53100586 -0.11352539 C291.65023802 -0.11324321 293.76947029 -0.11340186 295.88870239 -0.1139679 C301.63398099 -0.11425466 307.37923869 -0.10837747 313.12451243 -0.10139394 C319.13163697 -0.09514027 325.13876199 -0.094555 331.14588928 -0.09336853 C342.51772788 -0.09026116 353.88955686 -0.08205576 365.26139122 -0.07201904 C378.20931076 -0.06083947 391.15723076 -0.0553428 404.10515392 -0.05032361 C430.73677461 -0.03987267 457.36838677 -0.02228471 484 0 C482.19146957 3.92426754 479.91666983 6.15838568 476.6875 9.0625 C476.15624512 9.54074219 475.62499023 10.01898438 475.07763672 10.51171875 C438.25070092 43.46724314 402.73467121 66.4388573 351.91015625 66.44140625 C349.82847685 66.45321248 347.74680581 66.46658446 345.66514587 66.48143005 C340.23583595 66.51728138 334.80660023 66.53772062 329.37719727 66.55297852 C320.6660622 66.57800129 311.95509079 66.61775155 303.2441082 66.67487907 C300.22308761 66.691069 297.20222598 66.6949712 294.1811676 66.69789124 C292.31616955 66.70767351 290.45117395 66.71793776 288.58618164 66.72875977 C287.760522 66.72620682 286.93486237 66.72365387 286.08418274 66.72102356 C276.66598079 66.80257789 267.29222518 67.90287596 260.25 74.625 C256.84722604 79.09595867 255.85036376 83.93004365 256.12109375 89.484375 C257.34936516 97.63908417 261.27564882 104.08892061 267.6875 109.25 C277.22923913 115.78519114 291.35456028 122.06260989 303 122 C303.66 122.66 304.32 123.32 305 124 C306.92750193 124.61249473 308.88337718 125.13676482 310.84814453 125.61645508 C312.07767853 125.92049759 313.30721252 126.2245401 314.57400513 126.53779602 C315.23431858 126.69750696 315.89463203 126.8572179 316.57495499 127.02176857 C318.65623371 127.52519646 320.73526239 128.03711529 322.81393433 128.55119324 C326.49875513 129.4609805 330.18539381 130.36314373 333.87268066 131.26287842 C339.72369245 132.6906699 345.57307433 134.12492508 351.42019272 135.56857872 C353.43934315 136.06519113 355.45993845 136.55553585 357.48074341 137.04536438 C393.64593407 145.94704384 427.74959666 161.18038079 448 194 C462.04752045 217.36967361 466.02746418 242.86544828 460.06640625 269.4609375 C454.67651509 290.76209939 441.89111224 310.82309589 422.84643555 322.28955078 C395.36420861 338.0484848 365.48847635 341.05628492 335 334 C334.67 334.66 334.34 335.32 334 336 C334 335.01 334 334.02 334 333 C333.38543945 332.89768066 332.77087891 332.79536133 332.13769531 332.68994141 C325.9784394 331.57488344 320.48176447 329.86798675 314.75 327.375 C313.92935059 327.02236084 313.10870117 326.66972168 312.26318359 326.30639648 C295.87441587 319.11495027 281.34363607 309.18117116 267.875 297.48046875 C266.00393026 295.86616266 264.08779907 294.30221587 262.125 292.80078125 C261.42375 292.20652344 260.7225 291.61226562 260 291 C260 290.34 260 289.68 260 289 C258.68 288.34 257.36 287.68 256 287 C256 286.34 256 285.68 256 285 C255.34 285 254.68 285 254 285 C252.73046875 283.70703125 252.73046875 283.70703125 251.1875 281.8125 C247.81350668 277.83019761 244.21247686 274.16123749 240.5 270.5 C234.90862378 264.96656961 229.60298654 259.32603835 224.75 253.125 C222.99973763 250.79062776 222.99973763 250.79062776 220 249 C219.04935021 247.98925166 218.13487254 246.94380672 217.25 245.875 C216.72535156 245.24980469 216.20070313 244.62460937 215.66015625 243.98046875 C215.11230469 243.32691406 214.56445312 242.67335938 214 242 C205.20665339 231.81490069 196.10342299 221.90703551 187 212 C179.5599565 203.90318025 172.16955967 195.76461689 164.828125 187.578125 C160.70355484 182.9855185 156.55375029 178.41823413 152.375 173.875 C148.81057124 169.99882072 145.30331747 166.0817394 141.85546875 162.1015625 C139.54828164 159.48836952 137.17929939 156.93399311 134.8125 154.375 C130.81144143 150.04338926 126.93721343 145.62338676 123.125 141.125 C118.39913749 135.55296833 113.50538 130.16706761 108.51098633 124.83520508 C105.18044797 121.27876495 101.92191788 117.67750782 98.73828125 113.98828125 C96.52743511 111.45947072 94.26403557 108.98127436 92 106.5 C88.54356229 102.70990918 85.13156146 98.88943967 81.76953125 95.015625 C79.74885044 92.71392236 77.68687382 90.45235621 75.625 88.1875 C72.53363199 84.76770672 69.57540968 81.28041476 66.6875 77.6875 C62.79679292 72.87334412 58.66999534 68.35075666 54.44213867 63.83666992 C50.54031611 59.64706391 46.92689822 55.27845286 43.34375 50.8125 C40.66791722 47.60150066 37.85640293 44.54972364 35 41.5 C30.54449553 36.74256958 26.3686643 31.84181708 22.28515625 26.7578125 C19.73908983 23.68512379 17.0831596 20.74189343 14.375 17.8125 C13.90964844 17.30904053 13.44429688 16.80558105 12.96484375 16.28686523 C12.28421875 15.55125366 12.28421875 15.55125366 11.58984375 14.80078125 C9.35388048 12.38270332 7.13030842 9.95722191 4.9375 7.5 C4.41027344 6.9121875 3.88304687 6.324375 3.33984375 5.71875 C1.92391611 3.90239967 1.00094835 2.06750642 0 0 Z " fill="#4D6DF0" transform="translate(281,302)"/>
<path d="M0 0 C0.88394473 -0.00085442 1.76788946 -0.00170885 2.6786204 -0.00258917 C5.62809876 -0.00423076 8.57751971 0.00125573 11.5269928 0.00672913 C13.64622496 0.00701131 15.76545722 0.00685266 17.88468933 0.00628662 C23.62996793 0.00599986 29.37522563 0.01187705 35.12049937 0.01886058 C41.12762391 0.02511425 47.13474893 0.02569951 53.14187622 0.02688599 C64.51371482 0.02999336 75.8855438 0.03819875 87.25737816 0.04823548 C100.2052977 0.05941504 113.15321769 0.06491171 126.10114086 0.06993091 C152.73276155 0.08038185 179.3643737 0.09796981 205.99598694 0.12025452 C204.18745651 4.04452206 201.91265677 6.27864019 198.68348694 9.18275452 C198.15223206 9.6609967 197.62097717 10.13923889 197.07362366 10.63197327 C160.24668786 43.58749766 124.73065815 66.55911181 73.90614319 66.56166077 C71.82446379 66.573467 69.74279275 66.58683898 67.66113281 66.60168457 C62.23182289 66.6375359 56.80258717 66.65797513 51.3731842 66.67323303 C42.66204914 66.69825581 33.95107773 66.73800606 25.24009514 66.79513359 C22.21907455 66.81132351 19.19821292 66.81522572 16.17715454 66.81814575 C14.31215649 66.82792803 12.44716089 66.83819228 10.58216858 66.84901428 C9.75650894 66.84646133 8.9308493 66.84390839 8.08016968 66.84127808 C-1.33803227 66.92283241 -10.71178788 68.02313048 -17.75401306 74.74525452 C-21.15678702 79.21621318 -22.1536493 84.05029817 -21.88291931 89.60462952 C-20.6546479 97.75933869 -16.72836424 104.20917513 -10.31651306 109.37025452 C-0.77477393 115.90544566 13.35054722 122.18286441 24.99598694 122.12025452 C25.65598694 122.78025452 26.31598694 123.44025452 26.99598694 124.12025452 C28.92348887 124.73274925 30.87936412 125.25701934 32.84413147 125.73670959 C34.07366547 126.04075211 35.30319946 126.34479462 36.56999207 126.65805054 C37.56046225 126.89761695 37.56046225 126.89761695 38.57094193 127.14202309 C40.65222064 127.64545098 42.73124933 128.1573698 44.80992126 128.67144775 C48.49474207 129.58123501 52.18138075 130.48339825 55.8686676 131.38313293 C61.71967939 132.81092441 67.56906127 134.24517959 73.41617966 135.68883324 C75.43533009 136.18544565 77.45592539 136.67579036 79.47673035 137.1656189 C115.64192101 146.06729835 149.74558359 161.3006353 169.99598694 194.12025452 C184.04350739 217.48992813 188.02345112 242.9857028 182.06239319 269.58119202 C176.67250203 290.88235391 163.88709917 310.94335041 144.84242249 322.4098053 C117.36019555 338.16873931 87.48446329 341.17653944 56.99598694 334.12025452 C56.66598694 334.78025452 56.33598694 335.44025452 55.99598694 336.12025452 C55.99598694 335.13025452 55.99598694 334.14025452 55.99598694 333.12025452 C55.38142639 333.01793518 54.76686584 332.91561584 54.13368225 332.81019592 C47.97442633 331.69513796 42.47775141 329.98824127 36.74598694 327.49525452 C35.92533752 327.14261536 35.10468811 326.7899762 34.25917053 326.426651 C17.87040281 319.23520479 3.33962301 309.30142568 -10.12901306 297.60072327 C-12.0000828 295.98641717 -13.91621399 294.42247039 -15.87901306 292.92103577 C-16.58026306 292.32677795 -17.28151306 291.73252014 -18.00401306 291.12025452 C-18.00401306 290.46025452 -18.00401306 289.80025452 -18.00401306 289.12025452 C-19.32401306 288.46025452 -20.64401306 287.80025452 -22.00401306 287.12025452 C-22.00401306 286.46025452 -22.00401306 285.80025452 -22.00401306 285.12025452 C-22.66401306 285.12025452 -23.32401306 285.12025452 -24.00401306 285.12025452 C-25.27354431 283.82728577 -25.27354431 283.82728577 -26.81651306 281.93275452 C-30.19053649 277.95041659 -33.7917747 274.28177058 -37.50401306 270.62025452 C-50.33062768 257.91047784 -50.33062768 257.91047784 -53.00401306 252.12025452 C-47.65135821 255.30385969 -43.49910706 258.18009928 -40.11729431 263.45619202 C-37.83793884 266.86322861 -34.65386682 269.50552799 -31.69151306 272.30775452 C-30.00401306 274.12025452 -30.00401306 274.12025452 -30.00401306 276.12025452 C-29.01401306 276.12025452 -28.02401306 276.12025452 -27.00401306 276.12025452 C-24.00401306 279.45358785 -24.00401306 279.45358785 -24.00401306 282.12025452 C-23.34401306 282.12025452 -22.68401306 282.12025452 -22.00401306 282.12025452 C-20.84451049 283.24565408 -19.69202617 284.37928728 -18.57823181 285.54994202 C-16.06135226 288.06057621 -13.30740321 290.29432299 -10.57823181 292.56947327 C-10.05873962 293.08123108 -9.53924744 293.59298889 -9.00401306 294.12025452 C-9.00401306 294.78025452 -9.00401306 295.44025452 -9.00401306 296.12025452 C-8.34401306 296.12025452 -7.68401306 296.12025452 -7.00401306 296.12025452 C-7.00401306 296.78025452 -7.00401306 297.44025452 -7.00401306 298.12025452 C-6.01401306 298.45025452 -5.02401306 298.78025452 -4.00401306 299.12025452 C-4.00401306 299.78025452 -4.00401306 300.44025452 -4.00401306 301.12025452 C-3.36463806 301.22337952 -2.72526306 301.32650452 -2.06651306 301.43275452 C-1.04557556 301.77306702 -1.04557556 301.77306702 -0.00401306 302.12025452 C0.49098694 303.60525452 0.49098694 303.60525452 0.99598694 305.12025452 C2.99170017 305.79964626 4.99193467 306.4658701 6.99598694 307.12025452 C7.98598694 308.60525452 7.98598694 308.60525452 8.99598694 310.12025452 C11.55881436 310.84990818 11.55881436 310.84990818 13.99598694 311.12025452 C13.99598694 311.78025452 13.99598694 312.44025452 13.99598694 313.12025452 C14.88286194 313.38837952 15.76973694 313.65650452 16.68348694 313.93275452 C19.78695354 315.04531802 22.30709379 316.22221229 24.99598694 318.12025452 C24.99598694 318.78025452 24.99598694 319.44025452 24.99598694 320.12025452 C25.79391663 320.21306702 26.59184631 320.30587952 27.41395569 320.40150452 C31.94654986 321.31098906 36.02545048 322.90978767 40.30848694 324.62025452 C41.13155334 324.94123108 41.95461975 325.26220764 42.80262756 325.59291077 C48.85280029 327.97706787 48.85280029 327.97706787 49.99598694 329.12025452 C51.9419235 329.35510893 53.88814132 329.58790951 55.83583069 329.80775452 C57.99598694 330.12025452 57.99598694 330.12025452 61.18348694 331.05775452 C65.75539302 332.33189228 70.31376411 332.98799957 75.00770569 333.65541077 C77.99598694 334.12025452 77.99598694 334.12025452 79.92958069 334.66712952 C83.0773811 335.35738443 86.15399245 335.29170165 89.37098694 335.30775452 C90.65747131 335.3219342 91.94395569 335.33611389 93.26942444 335.35072327 C96.89988936 335.12619766 99.60476205 334.36402754 102.99598694 333.12025452 C108.37529728 332.80990969 108.37529728 332.80990969 110.99598694 334.12025452 C110.99598694 333.46025452 110.99598694 332.80025452 110.99598694 332.12025452 C112.00661194 331.99650452 113.01723694 331.87275452 114.05848694 331.74525452 C122.4076085 330.41999713 128.75257478 327.32309395 135.99598694 323.12025452 C136.79262756 322.6703717 137.58926819 322.22048889 138.41004944 321.75697327 C139.473526 321.13242249 139.473526 321.13242249 140.55848694 320.49525452 C141.178526 320.13173889 141.79856506 319.76822327 142.43739319 319.39369202 C144.32138476 317.85439063 144.92955806 316.28309221 145.99598694 314.12025452 C146.98598694 313.48087952 147.97598694 312.84150452 148.99598694 312.18275452 C152.28007862 309.92494149 152.85783468 308.81924936 153.99598694 305.12025452 C154.65598694 304.13025452 155.31598694 303.14025452 155.99598694 302.12025452 C156.65598694 302.12025452 157.31598694 302.12025452 157.99598694 302.12025452 C162.476781 286.15742566 159.61560299 272.79331619 152.12098694 258.30775452 C148.51473072 252.01302965 144.27542553 246.23758485 139.05848694 241.18275452 C138.37786194 240.50212952 137.69723694 239.82150452 136.99598694 239.12025452 C136.99598694 238.46025452 136.99598694 237.80025452 136.99598694 237.12025452 C136.33598694 237.12025452 135.67598694 237.12025452 134.99598694 237.12025452 C134.52161194 236.48087952 134.04723694 235.84150452 133.55848694 235.18275452 C132.08685044 232.83652488 132.08685044 232.83652488 128.99598694 232.12025452 C128.52161194 231.31587952 128.04723694 230.51150452 127.55848694 229.68275452 C125.90045713 226.96358563 124.91161754 226.22618337 121.99598694 225.12025452 C121.67162162 228.58015126 122.14799105 230.51017812 123.43348694 233.80775452 C126.26583979 241.12808677 126.81706085 246.8809291 123.93348694 254.30775452 C120.91124661 260.83075656 117.63780778 266.0608331 110.99598694 269.12025452 C107.3459022 270.97800174 107.3459022 270.97800174 104.99598694 274.12025452 C104.27411194 274.07900452 103.55223694 274.03775452 102.80848694 273.99525452 C100.021041 273.94577042 100.021041 273.94577042 97.78895569 275.11244202 C94.24810101 276.39012105 91.25384538 276.38528595 87.49598694 276.37025452 C86.20692444 276.37541077 84.91786194 276.38056702 83.58973694 276.38587952 C80.20492205 276.13569755 78.04846406 275.49707112 74.99598694 274.12025452 C73.92348694 273.99650452 72.85098694 273.87275452 71.74598694 273.74525452 C67.12729218 272.97547206 63.06968452 271.4368422 58.99598694 269.12025452 C58.66598694 268.46025452 58.33598694 267.80025452 57.99598694 267.12025452 C57.29473694 266.85212952 56.59348694 266.58400452 55.87098694 266.30775452 C52.21205155 264.79645512 48.94813987 262.77463986 45.99598694 260.12025452 C45.99598694 259.46025452 45.99598694 258.80025452 45.99598694 258.12025452 C45.00598694 257.79025452 44.01598694 257.46025452 42.99598694 257.12025452 C42.99598694 256.46025452 42.99598694 255.80025452 42.99598694 255.12025452 C41.01598694 254.13025452 41.01598694 254.13025452 38.99598694 253.12025452 C38.99598694 252.46025452 38.99598694 251.80025452 38.99598694 251.12025452 C41.98176197 252.46320137 44.03287745 253.97062312 46.37098694 256.24525452 C59.51321804 267.92452854 75.07700669 273.15431196 92.52333069 272.50306702 C101.447947 271.90871561 109.6881172 268.5921587 115.99598694 262.12025452 C119.38387137 257.24574617 120.76583916 251.86094413 121.99598694 246.12025452 C121.33598694 246.12025452 120.67598694 246.12025452 119.99598694 246.12025452 C120.20223694 245.29525452 120.40848694 244.47025452 120.62098694 243.62025452 C121.30842972 237.2041219 119.23480319 231.65323228 115.99598694 226.12025452 C115.33598694 225.79025452 114.67598694 225.46025452 113.99598694 225.12025452 C113.54223694 224.17150452 113.08848694 223.22275452 112.62098694 222.24525452 C111.00529022 219.13814544 110.00479653 217.81270991 106.99598694 216.12025452 C106.00598694 216.12025452 105.01598694 216.12025452 103.99598694 216.12025452 C103.91348694 215.50150452 103.83098694 214.88275452 103.74598694 214.24525452 C103.20887903 211.97744962 103.20887903 211.97744962 101.18544006 211.10926819 C100.46292053 210.78289368 99.740401 210.45651917 98.99598694 210.12025452 C98.37659241 209.79968079 97.75719788 209.47910706 97.11903381 209.14881897 C92.68411035 206.87165634 88.20993209 204.93961672 83.49598694 203.30775452 C82.4082196 202.92937439 82.4082196 202.92937439 81.29847717 202.54335022 C66.80343761 197.5945999 52.01431261 193.62393177 37.19642639 189.77748108 C18.44842799 184.90797804 0.36288754 179.86111158 -16.81651306 170.72181702 C-19.77039998 169.08564966 -19.77039998 169.08564966 -22.25401306 168.58119202 C-24.56472465 167.97256709 -25.36870419 166.85503473 -27.00401306 165.12025452 C-28.88423335 163.68293056 -30.78216368 162.26865125 -32.69151306 160.87025452 C-43.45224109 152.89140064 -43.45224109 152.89140064 -47.00401306 149.12025452 C-47.00401306 148.46025452 -47.00401306 147.80025452 -47.00401306 147.12025452 C-48.32401306 147.12025452 -49.64401306 147.12025452 -51.00401306 147.12025452 C-51.99401306 144.64525452 -51.99401306 144.64525452 -53.00401306 142.12025452 C-53.66401306 142.12025452 -54.32401306 142.12025452 -55.00401306 142.12025452 C-55.33401306 141.13025452 -55.66401306 140.14025452 -56.00401306 139.12025452 C-57.48901306 138.13025452 -57.48901306 138.13025452 -59.00401306 137.12025452 C-59.00401306 136.46025452 -59.00401306 135.80025452 -59.00401306 135.12025452 C-60.56703261 132.80651638 -62.16057752 130.55328603 -63.81651306 128.30775452 C-72.00401306 117.13024025 -72.00401306 117.13024025 -72.00401306 114.12025452 C-73.32401306 113.79025452 -74.64401306 113.46025452 -76.00401306 113.12025452 C-76.00401306 112.13025452 -76.00401306 111.14025452 -76.00401306 110.12025452 C-76.46707971 107.30285953 -77.14052671 104.673981 -77.97666931 101.94056702 C-83.08671818 84.61402138 -83.04061926 66.84385969 -76.00401306 50.12025452 C-75.569599 49.06837952 -75.13518494 48.01650452 -74.68760681 46.93275452 C-65.21142974 26.19855512 -47.88316118 12.47699385 -27.00401306 4.12025452 C-18.06206033 1.15115652 -9.3905165 -0.0335142 0 0 Z " fill="#6B4FF0" transform="translate(559.0040130615234,301.87974548339844)"/>
<path d="M0 0 C0.66 0 1.32 0 2 0 C3.24814331 1.40678023 4.4230839 2.87879704 5.5625 4.375 C8.40453352 8.02244735 11.3161668 11.52593757 14.4375 14.9375 C17.53595359 18.3325577 20.49305437 21.79440088 23.375 25.375 C27.05831239 29.93101359 30.93152306 34.24077491 34.92016602 38.52563477 C37.85120855 41.69315856 40.62013194 44.94079603 43.3125 48.3125 C47.0104909 52.91341148 50.94731282 57.21483893 55 61.5 C60.63202263 67.4575121 65.92026027 73.55999524 71 80 C71.68817338 80.73909513 72.37634676 81.47819025 73.08537388 82.2396822 C75.42820743 85.61734694 75.50046121 87.45147634 75.50120544 91.53227234 C75.50950704 92.49589895 75.50950704 92.49589895 75.51797634 93.47899276 C75.53155076 95.62400693 75.51663248 97.7678509 75.50170898 99.9128418 C75.50549356 101.45398959 75.51099474 102.99513399 75.51808167 104.53627014 C75.53204155 108.71847499 75.52086029 112.90026862 75.50437045 117.08245063 C75.49050549 121.46600643 75.49698215 125.8495387 75.50050354 130.23310852 C75.50320595 137.59972746 75.48973235 144.96618351 75.46655273 152.33276367 C75.43999214 160.83229211 75.43818008 169.33154736 75.4499411 177.83110303 C75.46075057 186.02115836 75.45450382 194.21111552 75.44038582 202.4011631 C75.43464846 205.87898917 75.43469104 209.35674286 75.43945122 212.83456993 C75.44425112 216.93948465 75.43399562 221.04410349 75.41249657 225.14896202 C75.40696748 226.64927167 75.40642741 228.14960998 75.41144943 229.64992142 C75.44725725 241.88965362 74.35275667 253.57106564 65.3269043 262.69042969 C60.23986386 267.21194944 54.90187906 270.69657206 49 274.0625 C48.05664795 274.6105127 47.1132959 275.15852539 46.14135742 275.72314453 C44.13592475 276.8873131 42.12830104 278.04771441 40.11865234 279.20458984 C35.87958944 281.64502108 31.65079611 284.10289963 27.42382812 286.56420898 C25.41258584 287.73475073 23.39967486 288.90243207 21.38476562 290.06665039 C15.54648203 293.45404185 9.84138427 296.98861063 4.20385742 300.70166016 C2 302 2 302 0 302 C0 202.34 0 102.68 0 0 Z " fill="#3D81FE" transform="translate(286,341)"/>
<path d="M0 0 C0.88394473 -0.00085442 1.76788946 -0.00170885 2.6786204 -0.00258917 C5.62809876 -0.00423076 8.57751971 0.00125573 11.5269928 0.00672913 C13.64622496 0.00701131 15.76545722 0.00685266 17.88468933 0.00628662 C23.62996793 0.00599986 29.37522563 0.01187705 35.12049937 0.01886058 C41.12762391 0.02511425 47.13474893 0.02569951 53.14187622 0.02688599 C64.51371482 0.02999336 75.8855438 0.03819875 87.25737816 0.04823548 C100.2052977 0.05941504 113.15321769 0.06491171 126.10114086 0.06993091 C152.73276155 0.08038185 179.3643737 0.09796981 205.99598694 0.12025452 C204.18745651 4.04452206 201.91265677 6.27864019 198.68348694 9.18275452 C198.15223206 9.6609967 197.62097717 10.13923889 197.07362366 10.63197327 C160.28131859 43.55650746 124.78302287 66.5163204 74.01161194 66.59681702 C71.93711869 66.61117365 69.86263477 66.62693875 67.78816223 66.64402771 C62.37481029 66.68549955 56.96151619 66.71074035 51.54804993 66.73152161 C42.87351201 66.76759804 34.19911747 66.8288683 25.52472687 66.89001083 C22.52216608 66.90885844 19.51964362 66.92075684 16.51704407 66.93144226 C-4.74115609 67.03285998 -23.70523995 68.29778076 -40.34776306 83.37025452 C-49.82237074 93.38116074 -53.53867576 103.30025754 -53.41978455 116.84584045 C-53.19405815 124.17650484 -51.944828 131.03859048 -50.00401306 138.12025452 C-55.30180976 137.468218 -56.9828731 135.4079586 -60.24229431 131.41322327 C-60.8236615 130.65654358 -61.40502869 129.89986389 -62.00401306 129.12025452 C-62.53381775 128.43576233 -63.06362244 127.75127014 -63.60948181 127.04603577 C-68.03500358 120.89126127 -70.49152495 114.22772928 -73.00401306 107.12025452 C-73.75396745 105.09940426 -74.50396417 103.0785697 -75.25401306 101.05775452 C-76.98032136 96.35285689 -78.13723873 92.47035013 -78.00401306 87.43275452 C-77.96638275 85.99574714 -77.95738447 84.55699807 -78.00401306 83.12025452 C-78.33401306 82.79025452 -78.66401306 82.46025452 -79.00401306 82.12025452 C-80.21517318 59.48087687 -74.86013019 42.32445094 -60.00401306 25.12025452 C-44.33831472 8.80407735 -22.43654245 -0.0800747 0 0 Z " fill="#30C0FE" transform="translate(559.0040130615234,301.87974548339844)"/>
<path d="M0 0 C1.00043565 3.11246646 0.89056141 4.88882277 0 8 C-0.14129118 9.51270605 -0.24462817 11.02928128 -0.31640625 12.546875 C-0.35830078 13.39121094 -0.40019531 14.23554688 -0.44335938 15.10546875 C-0.48267578 15.97816406 -0.52199219 16.85085938 -0.5625 17.75 C-0.60568359 18.63816406 -0.64886719 19.52632813 -0.69335938 20.44140625 C-0.79913615 22.62745963 -0.90122546 24.81362089 -1 27 C-0.34 27.33 0.32 27.66 1 28 C0.9175 29.216875 0.835 30.43375 0.75 31.6875 C0.76490948 41.18483706 4.82294937 50.15731926 8.86328125 58.58984375 C10 61 10 61 11.25 64.4375 C15.05676929 72.18699463 19.85832605 79.5694534 28 83 C27.566875 81.81470703 27.566875 81.81470703 27.125 80.60546875 C22.9071694 67.79087926 21.13341517 53.18959482 27.3203125 40.7109375 C35.79397852 27.03483467 49.12058455 16.09967914 65.03515625 12.26953125 C67.5 12 67.5 12 71 12 C69 14 69 14 66.1875 15.25 C61.76675375 17.67707637 59.04941755 20.4038106 57.17578125 25.0390625 C55.28182579 31.86695289 56.06776054 38.08500502 59.1953125 44.421875 C65.12317627 54.07489907 74.00652785 58.30306809 84 63 C80.42680954 64.19106349 79.36357614 63.47856198 76.11206055 61.85302734 C75.49758057 61.53027832 74.88310059 61.2075293 74.25 60.875 C73.62327393 60.55096191 72.99654785 60.22692383 72.35083008 59.89306641 C60.56727975 53.70183926 60.56727975 53.70183926 59.0625 49.1875 C59.041875 48.465625 59.02125 47.74375 59 47 C58.34 47 57.68 47 57 47 C53.11743525 37.37799171 51.8074049 28.97685968 55 19 C53.4122595 19.90901174 51.82998803 20.82757924 50.25 21.75 C49.36828125 22.26046875 48.4865625 22.7709375 47.578125 23.296875 C45.0216809 24.98567746 43.11033615 26.79253541 41 29 C39.96997278 29.8476779 38.92946803 30.6829253 37.875 31.5 C35.15863919 33.86205288 34.4370434 34.89598625 33 38 C32.16853081 39.41776157 31.33511297 40.83438168 30.5 42.25 C25.391477 51.50260508 24.62111205 61.15526192 27.125 71.4375 C29.20895322 78.3244692 31.85838457 86.90558971 38 91 C38.350625 92.03125 38.70125 93.0625 39.0625 94.125 C42.01413204 101.64538163 51.94498263 107.47249131 59 111 C59 111.66 59 112.32 59 113 C61.31 113.33 63.62 113.66 66 114 C66.33 114.99 66.66 115.98 67 117 C68.32 117 69.64 117 71 117 C71 117.66 71 118.32 71 119 C71.63035156 119.09410156 72.26070312 119.18820312 72.91015625 119.28515625 C77.23459757 120.2856275 81.29029996 121.86992862 85.4375 123.4375 C90.60086219 125.37425999 95.75167568 127.30176172 101 129 C97.46665474 130.17778175 96.48711477 129.75938693 93.01953125 128.62890625 C92.02727539 128.30543213 91.03501953 127.98195801 90.01269531 127.64868164 C88.95663086 127.2902417 87.90056641 126.93180176 86.8125 126.5625 C85.73709961 126.20212646 84.66169922 125.84175293 83.55371094 125.47045898 C75.69282585 122.76072006 68.35136425 119.51827848 61.046875 115.56640625 C58.21472658 113.95791454 58.21472658 113.95791454 55.765625 113.46484375 C53.44341928 112.85346658 52.6433539 111.7433146 51 110 C49.11977971 108.56267605 47.22184938 107.14839673 45.3125 105.75 C34.55177197 97.77114612 34.55177197 97.77114612 31 94 C31 93.34 31 92.68 31 92 C29.68 92 28.36 92 27 92 C26.34 90.35 25.68 88.7 25 87 C24.34 87 23.68 87 23 87 C22.67 86.01 22.34 85.02 22 84 C20.515 83.01 20.515 83.01 19 82 C19 81.34 19 80.68 19 80 C17.43698045 77.68626186 15.84343554 75.43303151 14.1875 73.1875 C6 62.00998573 6 62.00998573 6 59 C4.68 58.67 3.36 58.34 2 58 C2 57.01 2 56.02 2 55 C1.53693335 52.18260501 0.86348636 49.55372648 0.02734375 46.8203125 C-2.41457674 38.54053909 -3.40314211 30.830263 -3.4375 22.1875 C-3.44724854 21.24600098 -3.45699707 20.30450195 -3.46704102 19.33447266 C-3.38536513 12.51781534 -2.06430844 6.48389452 0 0 Z " fill="#4E43CD" transform="translate(481,357)"/>
<path d="M0 0 C20.79977779 3.91525229 40.13696092 15.26821958 56 29 C57.26070312 30.06154297 57.26070312 30.06154297 58.546875 31.14453125 C72.99935204 43.64811366 88.55543262 63.94936866 90.23828125 83.8125 C90.45551452 93.14209728 89.37158989 102.30293765 83.25 109.75 C82.5075 110.4925 81.765 111.235 81 112 C80.3125 110.25 80.3125 110.25 80 108 C81.3125 105.75 81.3125 105.75 83 104 C83.66 104 84.32 104 85 104 C89.48079407 88.03717114 86.61961605 74.67306168 79.125 60.1875 C75.51874378 53.89277514 71.27943859 48.11733033 66.0625 43.0625 C65.381875 42.381875 64.70125 41.70125 64 41 C64 40.34 64 39.68 64 39 C63.34 39 62.68 39 62 39 C61.525625 38.360625 61.05125 37.72125 60.5625 37.0625 C59.0908635 34.71627037 59.0908635 34.71627037 56 34 C55.525625 33.195625 55.05125 32.39125 54.5625 31.5625 C52.90447019 28.84333111 51.91563061 28.10592885 49 27 C48.67563468 30.45989675 49.15200412 32.3899236 50.4375 35.6875 C53.26985285 43.00783226 53.82107391 48.76067458 50.9375 56.1875 C47.91525967 62.71050205 44.64182084 67.94057859 38 71 C34.34991527 72.85774722 34.34991527 72.85774722 32 76 C31.278125 75.95875 30.55625 75.9175 29.8125 75.875 C27.02505406 75.82551591 27.02505406 75.82551591 24.79296875 76.9921875 C21.25211408 78.26986653 18.25785844 78.26503143 14.5 78.25 C12.56640625 78.25773438 12.56640625 78.25773438 10.59375 78.265625 C7.20893511 78.01544303 5.05247712 77.3768166 2 76 C0.9275 75.87625 -0.145 75.7525 -1.25 75.625 C-5.86869475 74.85521754 -9.92630242 73.31658768 -14 71 C-14.495 70.01 -14.495 70.01 -15 69 C-15.70125 68.731875 -16.4025 68.46375 -17.125 68.1875 C-20.78393539 66.6762006 -24.04784707 64.65438534 -27 62 C-27 61.34 -27 60.68 -27 60 C-27.99 59.67 -28.98 59.34 -30 59 C-30 58.34 -30 57.68 -30 57 C-31.32 56.34 -32.64 55.68 -34 55 C-34 54.34 -34 53.68 -34 53 C-31.01422497 54.34294685 -28.96310949 55.8503686 -26.625 58.125 C-13.4827689 69.80427402 2.08101975 75.03405744 19.52734375 74.3828125 C28.45196006 73.78846109 36.69213026 70.47190418 43 64 C46.38788443 59.12549165 47.76985223 53.74068961 49 48 C48.34 48 47.68 48 47 48 C47.20625 47.175 47.4125 46.35 47.625 45.5 C48.31244278 39.08386738 46.23881625 33.53297776 43 28 C42.34 27.67 41.68 27.34 41 27 C40.319375 25.576875 40.319375 25.576875 39.625 24.125 C38.00930328 21.01789093 37.0088096 19.6924554 34 18 C33.01 18 32.02 18 31 18 C30.9175 17.38125 30.835 16.7625 30.75 16.125 C30.21273422 13.85606721 30.21273422 13.85606721 28.18383789 12.98779297 C27.46317139 12.66182129 26.74250488 12.33584961 26 12 C25.39728271 11.68305176 24.79456543 11.36610352 24.17358398 11.03955078 C18.53874489 8.11111627 12.76201128 6.08846459 6.74023438 4.11328125 C1.1029451 2.20589019 1.1029451 2.20589019 0 0 Z " fill="#4826A8" transform="translate(632,500)"/>
<path d="M0 0 C5.35265485 3.18360517 9.50490601 6.05984477 12.88671875 11.3359375 C15.16607422 14.74297409 18.35014625 17.38527348 21.3125 20.1875 C23 22 23 22 23 24 C23.99 24 24.98 24 26 24 C29 27.33333333 29 27.33333333 29 30 C29.66 30 30.32 30 31 30 C32.15950258 31.12539956 33.31198689 32.25903276 34.42578125 33.4296875 C36.94266081 35.9403217 39.69660986 38.17406847 42.42578125 40.44921875 C43.20501953 41.21685547 43.20501953 41.21685547 44 42 C44 42.66 44 43.32 44 44 C44.66 44 45.32 44 46 44 C46 44.66 46 45.32 46 46 C46.99 46.33 47.98 46.66 49 47 C49 47.66 49 48.32 49 49 C49.639375 49.103125 50.27875 49.20625 50.9375 49.3125 C51.618125 49.539375 52.29875 49.76625 53 50 C53.33 50.99 53.66 51.98 54 53 C55.99571323 53.67939174 57.99594773 54.34561559 60 55 C60.66 55.99 61.32 56.98 62 58 C64.56282742 58.72965366 64.56282742 58.72965366 67 59 C67 59.66 67 60.32 67 61 C67.886875 61.268125 68.77375 61.53625 69.6875 61.8125 C72.7909666 62.9250635 75.31110685 64.10195778 78 66 C78 66.66 78 67.32 78 68 C78.79792969 68.0928125 79.59585938 68.185625 80.41796875 68.28125 C84.95056292 69.19073454 89.02946354 70.78953315 93.3125 72.5 C94.13556641 72.82097656 94.95863281 73.14195312 95.80664062 73.47265625 C101.85681335 75.85681335 101.85681335 75.85681335 103 77 C104.94593656 77.23485441 106.89215438 77.46765499 108.83984375 77.6875 C111 78 111 78 114.1875 78.9375 C118.75940608 80.21163776 123.31777718 80.86774505 128.01171875 81.53515625 C131 82 131 82 132.93359375 82.546875 C136.08139416 83.23712991 139.15800551 83.17144713 142.375 83.1875 C143.66148437 83.20167969 144.94796875 83.21585938 146.2734375 83.23046875 C149.90390242 83.00594314 152.60877511 82.24377302 156 81 C161.37931034 80.68965517 161.37931034 80.68965517 164 82 C164 81.34 164 80.68 164 80 C165.010625 79.87625 166.02125 79.7525 167.0625 79.625 C175.41162156 78.29974261 181.75658784 75.20283943 189 71 C189.79664063 70.55011719 190.59328125 70.10023438 191.4140625 69.63671875 C192.12304688 69.22035156 192.83203125 68.80398438 193.5625 68.375 C194.18253906 68.01148438 194.80257812 67.64796875 195.44140625 67.2734375 C197.14068976 66.06497714 197.14068976 66.06497714 197.98828125 63.9921875 C199.70291337 60.61588487 202.71096711 59.70542446 206 58 C205.67 59.32 205.34 60.64 205 62 C205.53109375 61.52949219 206.0621875 61.05898438 206.609375 60.57421875 C207.31578125 59.95160156 208.0221875 59.32898438 208.75 58.6875 C209.44609375 58.07261719 210.1421875 57.45773437 210.859375 56.82421875 C212.85114506 55.12685266 214.88898915 53.54522191 217 52 C210.72751882 65.70433092 193.30340683 73.61127825 180 79 C157.57044965 87.11929424 133.05167287 88.18714209 110 82 C109.67 82.66 109.34 83.32 109 84 C109 83.01 109 82.02 109 81 C108.38543945 80.89768066 107.77087891 80.79536133 107.13769531 80.68994141 C100.9784394 79.57488344 95.48176447 77.86798675 89.75 75.375 C88.92935059 75.02236084 88.10870117 74.66972168 87.26318359 74.30639648 C70.87441587 67.11495027 56.34363607 57.18117116 42.875 45.48046875 C41.00393026 43.86616266 39.08779907 42.30221587 37.125 40.80078125 C36.42375 40.20652344 35.7225 39.61226562 35 39 C35 38.34 35 37.68 35 37 C33.68 36.34 32.36 35.68 31 35 C31 34.34 31 33.68 31 33 C30.34 33 29.68 33 29 33 C27.73046875 31.70703125 27.73046875 31.70703125 26.1875 29.8125 C22.81347657 25.83016207 19.21223836 22.16151606 15.5 18.5 C2.67338538 5.79022332 2.67338538 5.79022332 0 0 Z " fill="#5436AE" transform="translate(506,554)"/>
<path d="M0 0 C-2 2 -2 2 -4.8125 3.25 C-9.23324625 5.67707637 -11.95058245 8.4038106 -13.82421875 13.0390625 C-15.71817421 19.86695289 -14.93223946 26.08500502 -11.8046875 32.421875 C-5.87682373 42.07489907 3.00652785 46.30306809 13 51 C9.42680954 52.19106349 8.36357614 51.47856198 5.11206055 49.85302734 C4.49758057 49.53027832 3.88310059 49.2075293 3.25 48.875 C2.62327393 48.55096191 1.99654785 48.22692383 1.35083008 47.89306641 C-10.43272025 41.70183926 -10.43272025 41.70183926 -11.9375 37.1875 C-11.958125 36.465625 -11.97875 35.74375 -12 35 C-12.66 35 -13.32 35 -14 35 C-17.88256475 25.37799171 -19.1925951 16.97685968 -16 7 C-17.5877405 7.90901174 -19.17001197 8.82757924 -20.75 9.75 C-21.63171875 10.26046875 -22.5134375 10.7709375 -23.421875 11.296875 C-25.9783191 12.98567746 -27.88966385 14.79253541 -30 17 C-31.03002722 17.8476779 -32.07053197 18.6829253 -33.125 19.5 C-35.84136081 21.86205288 -36.5629566 22.89598625 -38 26 C-38.83146919 27.41776157 -39.66488703 28.83438168 -40.5 30.25 C-45.608523 39.50260508 -46.37888795 49.15526192 -43.875 59.4375 C-41.79104678 66.3244692 -39.14161543 74.90558971 -33 79 C-31.8125 82.125 -31.8125 82.125 -31 85 C-36.33090641 81.55058997 -39.18357292 76.55542661 -42 71 C-42 70.34 -42 69.68 -42 69 C-42.66 69 -43.32 69 -44 69 C-48.23615409 56.36718333 -49.7552033 40.96494395 -43.6796875 28.7109375 C-35.2610538 15.12365428 -22.45709248 4.92098593 -6.94628906 0.40161133 C-4.59861161 -0.08282538 -2.39031914 -0.06639775 0 0 Z " fill="#2632B4" transform="translate(552,369)"/>
<path d="M0 0 C5.35265485 3.18360517 9.50490601 6.05984477 12.88671875 11.3359375 C15.16607422 14.74297409 18.35014625 17.38527348 21.3125 20.1875 C23 22 23 22 23 24 C23.99 24 24.98 24 26 24 C29 27.33333333 29 27.33333333 29 30 C29.66 30 30.32 30 31 30 C32.15950258 31.12539956 33.31198689 32.25903276 34.42578125 33.4296875 C36.94266081 35.9403217 39.69660986 38.17406847 42.42578125 40.44921875 C43.20501953 41.21685547 43.20501953 41.21685547 44 42 C44 42.66 44 43.32 44 44 C44.66 44 45.32 44 46 44 C46 44.66 46 45.32 46 46 C46.99 46.33 47.98 46.66 49 47 C49 47.66 49 48.32 49 49 C49.639375 49.103125 50.27875 49.20625 50.9375 49.3125 C51.618125 49.539375 52.29875 49.76625 53 50 C53.33 50.99 53.66 51.98 54 53 C55.99571323 53.67939174 57.99594773 54.34561559 60 55 C60.66 55.99 61.32 56.98 62 58 C64.56282742 58.72965366 64.56282742 58.72965366 67 59 C67 59.66 67 60.32 67 61 C67.886875 61.268125 68.77375 61.53625 69.6875 61.8125 C72.7909666 62.9250635 75.31110685 64.10195778 78 66 C78 66.66 78 67.32 78 68 C78.79792969 68.09410156 79.59585938 68.18820312 80.41796875 68.28515625 C84.94166457 69.18792215 89.03001414 70.75129266 93.3125 72.4375 C94.13556641 72.75009766 94.95863281 73.06269531 95.80664062 73.38476562 C96.58845703 73.68962891 97.37027344 73.99449219 98.17578125 74.30859375 C98.88645752 74.58501709 99.59713379 74.86144043 100.3293457 75.14624023 C102 76 102 76 103 78 C93.10521809 77.25039531 85.52363615 73.76364959 76.97851562 69.08349609 C75.11528258 68.06313229 73.23946374 67.07087574 71.359375 66.08203125 C59.28071575 59.51459881 48.92765056 51.0187742 38.890625 41.6796875 C37.09839372 39.9409778 37.09839372 39.9409778 35 39 C35 38.34 35 37.68 35 37 C33.68 36.34 32.36 35.68 31 35 C31 34.34 31 33.68 31 33 C30.34 33 29.68 33 29 33 C27.73046875 31.70703125 27.73046875 31.70703125 26.1875 29.8125 C22.81347657 25.83016207 19.21223836 22.16151606 15.5 18.5 C2.67338538 5.79022332 2.67338538 5.79022332 0 0 Z " fill="#7050E6" transform="translate(506,554)"/>
<path d="M0 0 C1.98 0.495 1.98 0.495 4 1 C-20.97609311 17.00217094 -45.79514078 22.43035974 -75.16015625 22.4765625 C-77.24662763 22.4909139 -79.33308971 22.50667813 -81.41954041 22.52377319 C-86.85946823 22.56523362 -92.29933835 22.59048978 -97.73937988 22.61126709 C-106.47489882 22.64736693 -115.21027546 22.7083317 -123.94564629 22.76975632 C-126.97890574 22.78871099 -130.01212683 22.8005308 -133.04542542 22.81118774 C-134.91057415 22.82140303 -136.77572212 22.83176121 -138.64086914 22.84228516 C-139.47371933 22.84332748 -140.30656952 22.84436981 -141.16465759 22.84544373 C-146.19172582 22.880332 -151.02250758 23.28560955 -156 24 C-156 23.34 -156 22.68 -156 22 C-146.52133552 19.71580069 -137.20416161 19.7576692 -127.53125 19.83984375 C-125.84371286 19.84613533 -124.15617148 19.85136832 -122.46862793 19.85560608 C-118.0437935 19.86882845 -113.61910047 19.89319444 -109.19433594 19.92095947 C-102.14444517 19.96423875 -95.09452442 19.99420493 -88.04454041 20.0170002 C-85.61723976 20.02698986 -83.1900704 20.04406668 -80.76281738 20.06199646 C-72.78812767 20.10598304 -64.83935721 19.98174733 -56.87304688 19.59594727 C-56.10956184 19.56153754 -55.34607681 19.52712782 -54.55945587 19.49167538 C-48.18784926 19.14425909 -42.13231841 18.03549407 -35.90625 16.62109375 C-33 16 -33 16 -30 16 C-30 15.34 -30 14.68 -30 14 C-29.18208984 13.85304688 -29.18208984 13.85304688 -28.34765625 13.703125 C-19.87571585 12.02321887 -12.84488998 8.81585077 -5.7265625 3.953125 C-4 3 -4 3 -1 3 C-0.67 2.01 -0.34 1.02 0 0 Z " fill="#3DA2F6" transform="translate(708,346)"/>
<path d="M0 0 C2.21342475 3.32013712 2.24813445 4.31989944 2.24050903 8.18217468 C2.24325836 9.25489624 2.24600769 10.3276178 2.24884033 11.43284607 C2.24164978 12.60960403 2.23445923 13.786362 2.22705078 14.9987793 C2.22734283 16.23792084 2.22763489 17.47706238 2.22793579 18.75375366 C2.22678027 22.15232301 2.21674213 25.5506501 2.20278788 28.94917655 C2.19029484 32.50060041 2.18911115 36.05202741 2.18673706 39.60346985 C2.18051809 46.32889331 2.16410165 53.05425184 2.14403808 59.77964669 C2.12169205 67.43615153 2.11068892 75.09265946 2.10064721 82.74918878 C2.07973577 98.49949681 2.04455171 114.24974003 2 130 C3.10472656 129.49855469 4.20945312 128.99710938 5.34765625 128.48046875 C9 127 9 127 11.4375 127.3125 C11.953125 127.539375 12.46875 127.76625 13 128 C11.21190303 129.17213045 9.41940875 130.33755526 7.625 131.5 C6.12839844 132.47453125 6.12839844 132.47453125 4.6015625 133.46875 C2 135 2 135 0 135 C0 90.45 0 45.9 0 0 Z " fill="#4B6EF6" transform="translate(286,508)"/>
<path d="M0 0 C10.12759385 -0.04648925 20.255162 -0.08195315 30.38284111 -0.10362434 C35.08632064 -0.11402922 39.78972677 -0.12812778 44.49316406 -0.15087891 C49.03839965 -0.17272539 53.58356496 -0.18459337 58.12884903 -0.18975449 C59.8566511 -0.19342915 61.58444965 -0.20060446 63.31222153 -0.21146011 C81.16088567 -0.31906994 92.38809779 1.58518376 105.93359375 13.81640625 C107.83922596 15.83010834 108.94592586 17.45985412 110 20 C106.625 19.375 106.625 19.375 103 18 C101.5625 14.875 101.5625 14.875 101 12 C100.34 12 99.68 12 99 12 C99 11.34 99 10.68 99 10 C97.68 10 96.36 10 95 10 C93.47459412 8.63519287 93.47459412 8.63519287 92 7 C84.14512956 1.49303657 74.62352812 2.49039254 65.49609375 2.609375 C63.80502495 2.6168469 62.11394742 2.62253534 60.42286682 2.62652588 C55.99876476 2.64170766 51.57519838 2.6809238 47.15130615 2.7253418 C42.62633508 2.76645662 38.1012764 2.78457132 33.57617188 2.8046875 C24.71721417 2.84742642 15.85865185 2.91558586 7 3 C7.33 4.32 7.66 5.64 8 7 C5 7 5 7 2.3125 4.625 C0 2 0 2 0 0 Z " fill="#41CDFA" transform="translate(281,302)"/>
<path d="M0 0 C0.66 0 1.32 0 2 0 C3.24814331 1.40678023 4.4230839 2.87879704 5.5625 4.375 C9.15639776 8.98640783 12.94162791 13.34075037 16.87890625 17.66015625 C19.65217289 20.71943197 22.32986479 23.85060975 25 27 C24.67 27.66 24.34 28.32 24 29 C23.34 29 22.68 29 22 29 C19.63785462 26.35153397 18.12827868 24.38483604 17 21 C15.24327469 19.38229612 13.38527709 17.95965071 11.49609375 16.5 C10 15 10 15 10 12 C9.4225 11.9175 8.845 11.835 8.25 11.75 C6 11 6 11 2 7 C2 40.99 2 74.98 2 110 C-0.09637746 106.8554338 -0.24889851 106.15521392 -0.24050903 102.57710266 C-0.24325836 101.67266418 -0.24600769 100.76822571 -0.24884033 99.83638 C-0.24164978 98.84663681 -0.23445923 97.85689362 -0.22705078 96.8371582 C-0.22734283 95.79308807 -0.22763489 94.74901794 -0.22793579 93.67330933 C-0.22654033 90.21571598 -0.21096877 86.75833704 -0.1953125 83.30078125 C-0.19158314 80.9061037 -0.18873581 78.51142462 -0.18673706 76.116745 C-0.17909453 69.8087443 -0.15944064 63.50083546 -0.1373291 57.19287109 C-0.11688407 50.75815066 -0.10773821 44.32341541 -0.09765625 37.88867188 C-0.0761954 25.25907536 -0.04243544 12.62954256 0 0 Z " fill="#3BAEFA" transform="translate(286,341)"/>
<path d="M0 0 C4.68317548 1.45969106 7.81466646 4.19282622 11.3125 7.5 C11.88645508 8.03898926 12.46041016 8.57797852 13.05175781 9.13330078 C27.13841417 22.58903366 41.84065577 42.7355322 42.3125 63 C42.22605078 72.60666995 39.88159514 81.11840486 33 88 C32.3125 86.25 32.3125 86.25 32 84 C33.3125 81.75 33.3125 81.75 35 80 C35.66 80 36.32 80 37 80 C41.48079407 64.03717114 38.61961605 50.67306168 31.125 36.1875 C27.51874378 29.89277514 23.27943859 24.11733033 18.0625 19.0625 C17.381875 18.381875 16.70125 17.70125 16 17 C16 16.34 16 15.68 16 15 C15.34 15 14.68 15 14 15 C13.525625 14.360625 13.05125 13.72125 12.5625 13.0625 C11.0908635 10.71627037 11.0908635 10.71627037 8 10 C6.98648336 8.34151823 5.98879205 6.67334039 5 5 C3.37163262 3.2958946 1.71230248 1.61974559 0 0 Z " fill="#3E1B98" transform="translate(680,524)"/>
<path d="M0 0 C-2 2 -2 2 -4.8125 3.25 C-9.23324625 5.67707637 -11.95058245 8.4038106 -13.82421875 13.0390625 C-15.71817421 19.86695289 -14.93223946 26.08500502 -11.8046875 32.421875 C-5.87682373 42.07489907 3.00652785 46.30306809 13 51 C9.42680954 52.19106349 8.36357614 51.47856198 5.11206055 49.85302734 C4.49758057 49.53027832 3.88310059 49.2075293 3.25 48.875 C2.62327393 48.55096191 1.99654785 48.22692383 1.35083008 47.89306641 C-10.43272025 41.70183926 -10.43272025 41.70183926 -11.9375 37.1875 C-11.9684375 36.1046875 -11.9684375 36.1046875 -12 35 C-12.66 35 -13.32 35 -14 35 C-17.08531085 27.35379486 -19.71467604 19.14402813 -17 11 C-16.64456573 8.66993089 -16.3086247 6.33672984 -16 4 C-14.274773 3.32320342 -12.54461061 2.65898 -10.8125 2 C-9.84957031 1.62875 -8.88664063 1.2575 -7.89453125 0.875 C-5.07817642 0.02363228 -2.91835561 -0.17072647 0 0 Z " fill="#2C3EB8" transform="translate(552,369)"/>
<path d="M0 0 C1.00043565 3.11246646 0.89056141 4.88882277 0 8 C-0.14129118 9.51270605 -0.24462817 11.02928128 -0.31640625 12.546875 C-0.35830078 13.39121094 -0.40019531 14.23554688 -0.44335938 15.10546875 C-0.48267578 15.97816406 -0.52199219 16.85085938 -0.5625 17.75 C-0.60568359 18.63816406 -0.64886719 19.52632813 -0.69335938 20.44140625 C-0.79913615 22.62745963 -0.90122546 24.81362089 -1 27 C-0.34 27.33 0.32 27.66 1 28 C0.9175 29.216875 0.835 30.43375 0.75 31.6875 C0.76513321 41.327356 4.90886704 50.37171902 9.14453125 58.85546875 C9.56798828 59.91701172 9.56798828 59.91701172 10 61 C9.67 61.66 9.34 62.32 9 63 C8.01 62.34 7.02 61.68 6 61 C6 60.34 6 59.68 6 59 C4.68 58.67 3.36 58.34 2 58 C2 57.01 2 56.02 2 55 C1.53693335 52.18260501 0.86348636 49.55372648 0.02734375 46.8203125 C-2.41457674 38.54053909 -3.40314211 30.830263 -3.4375 22.1875 C-3.44724854 21.24600098 -3.45699707 20.30450195 -3.46704102 19.33447266 C-3.38536513 12.51781534 -2.06430844 6.48389452 0 0 Z " fill="#4793FB" transform="translate(481,357)"/>
<path d="M0 0 C2.17886883 0.01198737 4.35774299 0.02303898 6.53662109 0.03320312 C29.38213725 0.16819879 52.22450497 0.66971306 75.0625 1.25 C75.0625 1.58 75.0625 1.91 75.0625 2.25 C73.88645203 2.24777939 72.71040405 2.24555878 71.49871826 2.24327087 C60.37705203 2.22293656 49.25538961 2.20797847 38.13370895 2.19818783 C32.41693086 2.19298505 26.70016785 2.18593506 20.98339844 2.17456055 C15.45909732 2.16363866 9.93481066 2.15770356 4.41049957 2.15512276 C2.31035383 2.1532852 0.21020881 2.14969711 -1.88993073 2.14426994 C-17.44093923 2.08114746 -17.44093923 2.08114746 -32.9375 3.25 C-32.9375 3.91 -32.9375 4.57 -32.9375 5.25 C-33.989375 5.518125 -35.04125 5.78625 -36.125 6.0625 C-39.53143126 7.12351957 -41.93029689 8.41226477 -44.9375 10.25 C-45.9275 10.25 -46.9175 10.25 -47.9375 10.25 C-47.9375 9.26 -47.9375 8.27 -47.9375 7.25 C-32.30460208 0.00369202 -16.88984619 -0.17809232 0 0 Z " fill="#39CFFB" transform="translate(572.9375,301.75)"/>
<path d="M0 0 C2.98577503 1.34294685 5.03689051 2.8503686 7.375 5.125 C19.57553418 15.96740421 34.08949054 21.19948477 50.296875 21.82421875 C53 22 53 22 54 23 C55.32594105 23.36162029 56.65938457 23.69728039 58 24 C55.01262272 25.49368864 51.96039093 25.18437999 48.6875 25.1875 C47.37136719 25.20167969 46.05523438 25.21585938 44.69921875 25.23046875 C41.23451039 25.01461047 39.11092131 24.41604327 36 23 C34.39125 22.814375 34.39125 22.814375 32.75 22.625 C28.13130525 21.85521754 24.07369758 20.31658768 20 18 C19.67 17.34 19.34 16.68 19 16 C18.29875 15.731875 17.5975 15.46375 16.875 15.1875 C13.21606461 13.6762006 9.95215293 11.65438534 7 9 C7 8.34 7 7.68 7 7 C6.01 6.67 5.02 6.34 4 6 C4 5.34 4 4.68 4 4 C2.68 3.34 1.36 2.68 0 2 C0 1.34 0 0.68 0 0 Z " fill="#6B44E0" transform="translate(598,553)"/>
<path d="M0 0 C2.9375 0.8125 2.9375 0.8125 6 2 C6.33 2.99 6.66 3.98 7 5 C8.99571323 5.67939174 10.99594773 6.34561559 13 7 C13.99 8.485 13.99 8.485 15 10 C17.56282742 10.72965366 17.56282742 10.72965366 20 11 C20 11.66 20 12.32 20 13 C21.3303125 13.4021875 21.3303125 13.4021875 22.6875 13.8125 C25.7909666 14.9250635 28.31110685 16.10195778 31 18 C31 18.66 31 19.32 31 20 C31.79792969 20.09410156 32.59585938 20.18820312 33.41796875 20.28515625 C37.94166457 21.18792215 42.03001414 22.75129266 46.3125 24.4375 C47.13556641 24.75009766 47.95863281 25.06269531 48.80664062 25.38476562 C49.58845703 25.68962891 50.37027344 25.99449219 51.17578125 26.30859375 C51.88645752 26.58501709 52.59713379 26.86144043 53.3293457 27.14624023 C55 28 55 28 56 30 C46.10521809 29.25039531 38.52363615 25.76364959 29.97851562 21.08349609 C28.11528258 20.06313229 26.23946374 19.07087574 24.359375 18.08203125 C15.51957619 13.2756384 7.60714578 7.57821572 0 1 C0 0.67 0 0.34 0 0 Z " fill="#6A45D6" transform="translate(553,602)"/>
<path d="M0 0 C1.13199353 0.9080162 2.25532363 1.82683826 3.375 2.75 C4.00148438 3.26046875 4.62796875 3.7709375 5.2734375 4.296875 C7.08312318 6.08199481 8.00117455 7.67949644 9 10 C9.66 10 10.32 10 11 10 C12.234375 11.22265625 12.234375 11.22265625 13.75 13.0625 C17.38622709 17.34041423 21.16814626 21.4606333 25 25.5625 C25.58104492 26.18713135 26.16208984 26.8117627 26.76074219 27.45532227 C30.31458085 31.25808927 33.94784582 34.94229307 37.71484375 38.53491211 C39 40 39 40 39 42 C35.56086948 41.43790555 34.19798944 40.47112228 32.0625 37.75 C30.17506234 35.41225995 28.34985207 33.3642998 26.1875 31.25 C24 29 24 29 23 26 C22.01 25.67 21.02 25.34 20 25 C20 24.34 20 23.68 20 23 C19.34 23 18.68 23 18 23 C16.2734375 21.3203125 16.2734375 21.3203125 14.375 19.125 C13.74335937 18.40570312 13.11171875 17.68640625 12.4609375 16.9453125 C11 15 11 15 11 13 C10.34 13 9.68 13 9 13 C7.37890625 11.390625 7.37890625 11.390625 5.5625 9.25 C4.96566406 8.55390625 4.36882813 7.8578125 3.75390625 7.140625 C2.10918902 5.13326411 0.53873892 3.08929688 -1 1 C-0.67 0.67 -0.34 0.34 0 0 Z " fill="#734EEE" transform="translate(558,510)"/>
<path d="M0 0 C16.72890364 3.1489701 32.19986129 11.21808349 46 21 C46.495 21.99 46.495 21.99 47 23 C46.4225 22.835 45.845 22.67 45.25 22.5 C42.73335631 21.85537969 42.73335631 21.85537969 39 22 C37.3174387 20.68678142 35.65002828 19.35386936 34 18 C33.01 18 32.02 18 31 18 C30.9175 17.38125 30.835 16.7625 30.75 16.125 C30.21273422 13.85606721 30.21273422 13.85606721 28.18383789 12.98779297 C27.46317139 12.66182129 26.74250488 12.33584961 26 12 C25.39728271 11.68305176 24.79456543 11.36610352 24.17358398 11.03955078 C18.53874489 8.11111627 12.76201128 6.08846459 6.74023438 4.11328125 C1.1029451 2.20589019 1.1029451 2.20589019 0 0 Z " fill="#40209D" transform="translate(632,500)"/>
<path d="M0 0 C15.99134387 5.15567917 28.24610968 25.12166008 36 39 C35.01 39.33 34.02 39.66 33 40 C30 34.25 30 34.25 30 32 C29.34 32 28.68 32 28 32 C26.7109375 30.3203125 26.7109375 30.3203125 25.375 28.125 C24.92898438 27.40570313 24.48296875 26.68640625 24.0234375 25.9453125 C23 24 23 24 23 22 C22.01 21.67 21.02 21.34 20 21 C19.3162955 19.67532254 18.65035814 18.34136367 18 17 C17.01 16.34 16.02 15.68 15 15 C15 14.34 15 13.68 15 13 C14.34 13 13.68 13 13 13 C12.566875 12.401875 12.13375 11.80375 11.6875 11.1875 C9.73328906 8.6542636 7.7547672 7.58399114 5 6 C2.85305579 4.09160515 1.62522635 2.43783953 0 0 Z " fill="#865AF5" transform="translate(697,464)"/>
<path d="M0 0 C25.41 0 50.82 0 77 0 C77 0.33 77 0.66 77 1 C41.855 1.495 41.855 1.495 6 2 C6.33 3.32 6.66 4.64 7 6 C4 6 4 6 1.8125 4.125 C0 2 0 2 0 0 Z " fill="#34C8FC" transform="translate(282,303)"/>
<path d="M0 0 C7.28592307 0.38400149 14.00342464 0.83742216 21 3 C24.33068274 3.56744965 27.66676915 4.05955237 31.01171875 4.53515625 C33.40399908 4.90728875 35.66897616 5.36379215 38 6 C38.7425 6.185625 39.485 6.37125 40.25 6.5625 C40.8275 6.706875 41.405 6.85125 42 7 C33.8917725 11.05411375 21.36157895 6.91905091 13 5 C12.67 5.66 12.34 6.32 12 7 C12 6.01 12 5.02 12 4 C11.30132813 3.87882813 10.60265625 3.75765625 9.8828125 3.6328125 C8.97273437 3.46523438 8.06265625 3.29765625 7.125 3.125 C5.76761719 2.88136719 5.76761719 2.88136719 4.3828125 2.6328125 C2 2 2 2 0 0 Z " fill="#5D3BBF" transform="translate(603,631)"/>
<path d="M0 0 C16.39232922 2.90831647 36.93660814 6.9884498 50 18 C47 19 47 19 43.84765625 17.453125 C42.58277631 16.72420828 41.32123513 15.98947733 40.0625 15.25 C34.35613338 12.03883108 29.11875051 9.92558973 22.6640625 8.5859375 C20.12591098 8.02769303 17.849682 7.26860123 15.4375 6.3125 C12.14614856 4.82164922 12.14614856 4.82164922 9 5 C9 4.34 9 3.68 9 3 C8.21625 3.185625 7.4325 3.37125 6.625 3.5625 C4 4 4 4 2 3 C2 2.34 2 1.68 2 1 C1.34 0.67 0.68 0.34 0 0 Z " fill="#7E65F7" transform="translate(636,439)"/>
<path d="M0 0 C4.8 2.46153846 4.8 2.46153846 5.8125 5.1875 C5.874375 5.785625 5.93625 6.38375 6 7 C6.66 7 7.32 7 8 7 C8 7.66 8 8.32 8 9 C8.598125 9.061875 9.19625 9.12375 9.8125 9.1875 C12.88791343 10.32979642 13.45477272 12.17828061 15 15 C15.556875 15.556875 16.11375 16.11375 16.6875 16.6875 C17.120625 17.120625 17.55375 17.55375 18 18 C18 18.66 18 19.32 18 20 C18.99 20.33 19.98 20.66 21 21 C22.60546875 22.55859375 22.60546875 22.55859375 24.1875 24.4375 C24.71730469 25.05496094 25.24710937 25.67242187 25.79296875 26.30859375 C27 28 27 28 27 30 C23.79100035 28.59642184 21.74560067 26.94912212 19.35546875 24.40234375 C18.67806641 23.68240234 18.00066406 22.96246094 17.30273438 22.22070312 C16.60470703 21.46724609 15.90667969 20.71378906 15.1875 19.9375 C14.50107422 19.21111328 13.81464844 18.48472656 13.10742188 17.73632812 C0 3.71126271 0 3.71126271 0 0 Z " fill="#437EF8" transform="translate(402,438)"/>
<path d="M0 0 C1 1 2 2 3 3 C3.73347656 3.72574219 4.46695312 4.45148437 5.22265625 5.19921875 C8.28867851 8.29111462 11.28230972 11.4390972 14.25 14.625 C15.06210937 15.48351562 15.06210937 15.48351562 15.890625 16.359375 C18.23618917 18.88085648 19.89806214 20.69418643 21 24 C22.63044124 25.65637688 22.63044124 25.65637688 24.5625 27.1875 C25.20316406 27.71730469 25.84382813 28.24710938 26.50390625 28.79296875 C27.24447266 29.39044922 27.24447266 29.39044922 28 30 C27.67 30.66 27.34 31.32 27 32 C23.83001083 30.94333694 23.26163758 30.41814297 21.25 27.9375 C20.72535156 27.30328125 20.20070313 26.6690625 19.66015625 26.015625 C19.11230469 25.35046875 18.56445312 24.6853125 18 24 C9.24381297 13.77454156 9.24381297 13.77454156 0 4 C0 2.68 0 1.36 0 0 Z " fill="#6758ED" transform="translate(477,520)"/>
<path d="M0 0 C2.00980581 4.01961161 2.23947017 5.53192372 2.1953125 9.859375 C2.18886719 10.97441406 2.18242187 12.08945312 2.17578125 13.23828125 C2.15902344 14.39714844 2.14226562 15.55601562 2.125 16.75 C2.11597656 17.92433594 2.10695313 19.09867188 2.09765625 20.30859375 C2.07410063 23.20593536 2.04120652 26.10286441 2 29 C3.0725 28.484375 4.145 27.96875 5.25 27.4375 C7.71477612 26.36759718 8.72132303 25.96427218 11.4375 26.3125 C11.953125 26.539375 12.46875 26.76625 13 27 C11.21190303 28.17213045 9.41940875 29.33755526 7.625 30.5 C6.62726563 31.1496875 5.62953125 31.799375 4.6015625 32.46875 C2 34 2 34 0 34 C0 22.78 0 11.56 0 0 Z " fill="#505EEE" transform="translate(286,609)"/>
<path d="M0 0 C2.49678913 2.2495033 4.31884203 4.81688785 6.20996094 7.58178711 C11.04832257 14.6497597 16.38466314 20.93274616 22.28125 27.1328125 C25.31248079 30.32954153 28.17299139 33.62329527 31 37 C28.07153324 35.57268007 25.48582937 34.13071088 23 32 C23 31.34 23 30.68 23 30 C21.68 30 20.36 30 19 30 C18.34 28.35 17.68 26.7 17 25 C16.34 25 15.68 25 15 25 C14.67 24.01 14.34 23.02 14 22 C13.01 21.34 12.02 20.68 11 20 C11 19.34 11 18.68 11 18 C8.94453392 15.02311809 6.81165629 12.12456203 4.64257812 9.23046875 C3.9706543 8.31587891 3.9706543 8.31587891 3.28515625 7.3828125 C2.66459351 6.55354248 2.66459351 6.55354248 2.03149414 5.70751953 C0.89528102 3.82664982 0.42835894 2.14501546 0 0 Z " fill="#3A40B9" transform="translate(489,419)"/>
<path d="M0 0 C-2 2 -2 2 -4.8125 3.25 C-9.20117927 5.65947097 -12.11145886 8.44486873 -13.75390625 13.16796875 C-14.24165605 15.09509209 -14.62958931 17.04692546 -15 19 C-15.12375 18.360625 -15.2475 17.72125 -15.375 17.0625 C-15.58125 16.381875 -15.7875 15.70125 -16 15 C-16.66 14.67 -17.32 14.34 -18 14 C-17.67 13.01 -17.34 12.02 -17 11 C-16.64456573 8.66993089 -16.3086247 6.33672984 -16 4 C-14.274773 3.32320342 -12.54461061 2.65898 -10.8125 2 C-9.84957031 1.62875 -8.88664063 1.2575 -7.89453125 0.875 C-5.07817642 0.02363228 -2.91835561 -0.17072647 0 0 Z " fill="#3257CB" transform="translate(552,369)"/>
<path d="M0 0 C0.33 0 0.66 0 1 0 C1.61523479 3.15307829 2.00125181 5.96807882 1.875 9.1875 C2.18973413 18.78689108 5.99880412 27.88608064 11 36 C11.99 36.66 12.98 37.32 14 38 C15.1875 41.125 15.1875 41.125 16 44 C10.66909359 40.55058997 7.81642708 35.55542661 5 30 C5 29.34 5 28.68 5 28 C4.34 28 3.68 28 3 28 C-0.02149686 18.50386702 -0.33706931 9.83743016 0 0 Z " fill="#2826A6" transform="translate(505,410)"/>
<path d="M0 0 C0.33 0 0.66 0 1 0 C1.03963867 0.62865967 1.07927734 1.25731934 1.12011719 1.9050293 C2.10819792 16.82586726 3.60689186 29.75507328 10.36328125 43.29296875 C10.57339844 43.85628906 10.78351563 44.41960937 11 45 C10.67 45.66 10.34 46.32 10 47 C9.505 45.515 9.505 45.515 9 44 C6.98491642 43.26676204 6.98491642 43.26676204 5 43 C5 42.01 5 41.02 5 40 C4.52774233 37.14656943 3.84127874 34.45818042 3.02734375 31.6796875 C-0.04522249 20.95323762 -0.43492709 11.11480344 0 0 Z " fill="#4274E2" transform="translate(478,372)"/>
<path d="M0 0 C-1.43457328 0.9834496 -2.87277406 1.96160921 -4.3125 2.9375 C-5.11300781 3.48277344 -5.91351562 4.02804687 -6.73828125 4.58984375 C-9 6 -9 6 -12 7 C-13.71289005 8.72765164 -13.71289005 8.72765164 -15.375 10.8125 C-18.02361939 13.94473143 -20.66539533 16.57483296 -24 19 C-23.41894164 13.09603197 -20.08343694 10.91681497 -15.7734375 7.23046875 C-4.63687904 -1.7258339 -4.63687904 -1.7258339 0 0 Z " fill="#39CDFC" transform="translate(521,314)"/>
<path d="M0 0 C0.99 0.33 1.98 0.66 3 1 C3 1.66 3 2.32 3 3 C3.61875 3.268125 4.2375 3.53625 4.875 3.8125 C7 5 7 5 9 8 C9.99 8.66 10.98 9.32 12 10 C13.0787541 11.08948797 14.11932387 12.2177144 15.125 13.375 C15.64320313 13.96023438 16.16140625 14.54546875 16.6953125 15.1484375 C18.07970944 17.11312058 18.57596162 18.65227531 19 21 C19.66 21 20.32 21 21 21 C21.33 22.32 21.66 23.64 22 25 C17.03883948 20.99099073 12.81424325 16.71996898 8.75 11.8125 C7.72503155 10.58894392 6.6990246 9.36625687 5.671875 8.14453125 C5.2294043 7.61190674 4.78693359 7.07928223 4.33105469 6.53051758 C2.99541548 4.94378127 2.99541548 4.94378127 1.33300781 3.4284668 C0 2 0 2 0 0 Z " fill="#36BBFA" transform="translate(317,343)"/>
<path d="M0 0 C5.39464224 4.24684602 9.54876449 8.92035914 13.7890625 14.31640625 C15.99717463 17.09385205 15.99717463 17.09385205 18.7734375 19.71484375 C21 22 21 22 21 24 C19.68 23.34 18.36 22.68 17 22 C17 21.34 17 20.68 17 20 C16.01 20 15.02 20 14 20 C11 16.66666667 11 16.66666667 11 14 C10.34 14 9.68 14 9 14 C7.34375 12.20703125 7.34375 12.20703125 5.5 9.8125 C4.8915625 9.03519531 4.283125 8.25789063 3.65625 7.45703125 C2.0218664 5.0324386 0.9759371 2.74726295 0 0 Z " fill="#38B0FB" transform="translate(311,370)"/>
<path d="M0 0 C0.33 0 0.66 0 1 0 C1.59534147 10.25310312 1.04560537 20.48298151 -5.75 28.75 C-6.86375 29.86375 -6.86375 29.86375 -8 31 C-8.6875 29.25 -8.6875 29.25 -9 27 C-7.6875 24.75 -7.6875 24.75 -6 23 C-5.34 23 -4.68 23 -4 23 C-2.45169145 16.80676579 -1.64487029 10.87619264 -1.24609375 4.50390625 C-1 2 -1 2 0 0 Z " fill="#4725A3" transform="translate(721,581)"/>
<path d="M0 0 C1.41681634 0.31182069 2.83344651 0.62448737 4.25 0.9375 C5.43335938 1.19853516 5.43335938 1.19853516 6.640625 1.46484375 C8.05179478 1.78492696 9.45776699 2.1325879 10.84765625 2.53515625 C15.14836586 3.46398464 19.59749633 3.46597301 23.98046875 3.71875 C27 4 27 4 28 5 C29.32594105 5.36162029 30.65938457 5.69728039 32 6 C26.75955113 8.62022443 18.44396012 7.93989478 12.82617188 6.40673828 C8.42519209 4.88155739 4.20207181 3.00268954 0 1 C0 0.67 0 0.34 0 0 Z " fill="#5F39CA" transform="translate(624,571)"/>
<path d="M0 0 C5.41131678 0.38652263 8.99642319 1.38936999 13.78808594 3.88134766 C16.04400348 5.0222543 18.32469084 6.04029919 20.6484375 7.03515625 C21.81439453 7.53692383 21.81439453 7.53692383 23.00390625 8.04882812 C24.6058715 8.73368806 26.21011184 9.41324697 27.81640625 10.08789062 C28.58597656 10.42111328 29.35554687 10.75433594 30.1484375 11.09765625 C30.84114746 11.39164307 31.53385742 11.68562988 32.24755859 11.98852539 C34 13 34 13 36 16 C31.38971694 15.39059477 27.68167398 13.45341265 23.625 11.3125 C15.93436735 7.34870054 8.08431493 4.06646428 0 1 C0 0.67 0 0.34 0 0 Z " fill="#8E5AFA" transform="translate(636,500)"/>
<path d="M0 0 C1.051875 0.30744141 1.051875 0.30744141 2.125 0.62109375 C6.59748102 1.89113252 10.92655393 3.10146669 15.5625 3.5625 C19 4 19 4 21 6 C22.68761858 6.60311615 24.40014476 7.13850237 26.125 7.625 C27.03507813 7.88539063 27.94515625 8.14578125 28.8828125 8.4140625 C29.58148437 8.60742188 30.28015625 8.80078125 31 9 C27.16511502 10.4227706 24.32229072 9.55690035 20.4375 8.5625 C15.77111261 7.36519036 15.77111261 7.36519036 11 7 C10.67 6.34 10.34 5.68 10 5 C7.66842508 4.65458149 5.33491639 4.32205743 3 4 C2.01 3.34 1.02 2.68 0 2 C0 1.34 0 0.68 0 0 Z " fill="#5354E0" transform="translate(565,420)"/>
<path d="M0 0 C0 3.75575759 -0.74926984 5.00204554 -3 8 C-5.35326237 9.62853591 -7.56725766 11.01949704 -10.0625 12.375 C-10.69994141 12.74238281 -11.33738281 13.10976563 -11.99414062 13.48828125 C-13.62406288 14.39856449 -15.30938532 15.20811357 -17 16 C-17.66 15.67 -18.32 15.34 -19 15 C-18.22914063 14.54109375 -17.45828125 14.0821875 -16.6640625 13.609375 C-15.66117188 12.99578125 -14.65828125 12.3821875 -13.625 11.75 C-12.62726562 11.14671875 -11.62953125 10.5434375 -10.6015625 9.921875 C-7.96332372 7.97290581 -7.28397364 6.90082934 -6 4 C-2.875 1.75 -2.875 1.75 0 0 Z " fill="#5A34C3" transform="translate(711,612)"/>
<path d="M0 0 C1.1055189 0.93590504 2.20935453 1.87379858 3.3125 2.8125 C3.92738281 3.33457031 4.54226563 3.85664063 5.17578125 4.39453125 C8.51952278 7.3373102 8.51952278 7.3373102 10 9 C10 9.66 10 10.32 10 11 C8.02 11.33 6.04 11.66 4 12 C4 11.34 4 10.68 4 10 C2.68 10.33 1.36 10.66 0 11 C0 10.01 0 9.02 0 8 C1.65 8 3.3 8 5 8 C5 7.34 5 6.68 5 6 C4.01 6 3.02 6 2 6 C1.34 4.02 0.68 2.04 0 0 Z " fill="#584CF5" transform="translate(538,488)"/>
<path d="M0 0 C2.11391258 2.77648219 4.12112393 5.60034879 6.0625 8.5 C6.56910156 9.2528125 7.07570313 10.005625 7.59765625 10.78125 C8.8782097 12.80730672 9.97249368 14.83682881 11 17 C5.70987876 12.59156563 0.81191572 7.92440206 -4 3 C-3.67 2.34 -3.34 1.68 -3 1 C-2.01 1.33 -1.02 1.66 0 2 C0 1.34 0 0.68 0 0 Z " fill="#5A5CEE" transform="translate(509,438)"/>
<path d="M0 0 C3.60047236 1.52074746 5.90006763 3.66244345 8.625 6.4375 C9.40101563 7.21996094 10.17703125 8.00242187 10.9765625 8.80859375 C13 11 13 11 15 14 C14.67 14.99 14.34 15.98 14 17 C3.95652174 7.23126735 3.95652174 7.23126735 0 2 C0 1.34 0 0.68 0 0 Z " fill="#38B1FB" transform="translate(345,375)"/>
<path d="M0 0 C4.88461676 2.6516491 9.19320406 5.57961219 11 11 C11.66 11 12.32 11 13 11 C15.5867822 13.06942576 16.4409112 14.75728494 17 18 C13.99578926 16.66189419 12.00035086 15.21637742 9.765625 12.8125 C9.19199219 12.19632812 8.61835938 11.58015625 8.02734375 10.9453125 C7.14755859 9.98238281 7.14755859 9.98238281 6.25 9 C5.64800781 8.35804688 5.04601562 7.71609375 4.42578125 7.0546875 C0 2.2575822 0 2.2575822 0 0 Z " fill="#3E91F8" transform="translate(376,410)"/>
<path d="M0 0 C0.66 0.99 1.32 1.98 2 3 C-0.98334854 8.01202555 -4.43951988 11.38748484 -9 15 C-9 11.41628085 -8.25521663 10.72412796 -6.0625 8 C-4.09824167 5.54815981 -3.00664658 4.01993973 -2 1 C-1.34 0.67 -0.68 0.34 0 0 Z " fill="#6F41E7" transform="translate(720,602)"/>
<path d="M0 0 C10.74036027 2.02171487 20.15802353 6.39614212 30 11 C30 11.99 30 12.98 30 14 C28.04842574 13.03000269 26.10253337 12.05391876 24.17358398 11.03955078 C18.53874489 8.11111627 12.76201128 6.08846459 6.74023438 4.11328125 C1.1029451 2.20589019 1.1029451 2.20589019 0 0 Z " fill="#5D42C1" transform="translate(632,500)"/>
<path d="M0 0 C4.18009363 1.59856312 6.77036124 4.68807789 9.6875 7.9375 C10.43483398 8.74477539 10.43483398 8.74477539 11.19726562 9.56835938 C13.4314164 12.02683465 14.93807339 13.81422018 16 17 C15.34 17 14.68 17 14 17 C14 16.34 14 15.68 14 15 C13.01 15 12.02 15 11 15 C8.80859375 12.62890625 8.80859375 12.62890625 6.4375 9.5625 C3.69133534 5.7187073 3.69133534 5.7187073 0 3 C0 2.01 0 1.02 0 0 Z " fill="#3D8EF9" transform="translate(456,396)"/>
<path d="M0 0 C0.53625 0.37125 1.0725 0.7425 1.625 1.125 C-1.31881488 2.79628932 -3.54883394 3.40231759 -6.921875 3.5390625 C-7.76621094 3.57773437 -8.61054687 3.61640625 -9.48046875 3.65625 C-10.35316406 3.6871875 -11.22585938 3.718125 -12.125 3.75 C-13.01316406 3.78867187 -13.90132812 3.82734375 -14.81640625 3.8671875 C-17.0023998 3.96120873 -19.18839062 4.04686143 -21.375 4.125 C-21.375 3.465 -21.375 2.805 -21.375 2.125 C-17.62993552 1.18873388 -14.21017993 1.15077782 -10.36328125 1.23046875 C-8.11619399 1.20318751 -8.11619399 1.20318751 -5.125 0 C-2.375 -0.875 -2.375 -0.875 0 0 Z " fill="#5936BA" transform="translate(664.375,635.875)"/>
<path d="M0 0 C0.62261719 0.52787109 0.62261719 0.52787109 1.2578125 1.06640625 C7.62352676 6.1669681 14.67359691 9.52201651 22 13 C19 14 19 14 15.8203125 12.70703125 C14.58329449 12.08586199 13.35165952 11.45388227 12.125 10.8125 C11.51269531 10.50763672 10.90039062 10.20277344 10.26953125 9.88867188 C6.49172312 7.95932019 3.08410416 5.92579463 0 3 C0 2.01 0 1.02 0 0 Z " fill="#363EC1" transform="translate(543,407)"/>
<path d="M0 0 C1.32 0.33 2.64 0.66 4 1 C4 1.99 4 2.98 4 4 C4.61875 4.2475 5.2375 4.495 5.875 4.75 C8.42968717 6.25275716 8.69859247 7.39718494 10 10 C11.66270287 11.33827304 13.32916181 12.67189785 15 14 C15.33 14.99 15.66 15.98 16 17 C13.10820032 15.69985934 11.13291606 14.35656066 8.984375 12.03125 C8.45585937 11.46019531 7.92734375 10.88914062 7.3828125 10.30078125 C6.84398437 9.70652344 6.30515625 9.11226563 5.75 8.5 C5.19570313 7.90574219 4.64140625 7.31148438 4.0703125 6.69921875 C0 2.25796644 0 2.25796644 0 0 Z " fill="#3A9CF8" transform="translate(360,392)"/>
<path d="M0 0 C14.78132118 0.77904328 14.78132118 0.77904328 21 3 C20.67 3.66 20.34 4.32 20 5 C19.05125 4.95875 18.1025 4.9175 17.125 4.875 C13.89755144 4.65026182 13.89755144 4.65026182 12 7 C12 6.01 12 5.02 12 4 C11.30132813 3.87882813 10.60265625 3.75765625 9.8828125 3.6328125 C8.97273437 3.46523438 8.06265625 3.29765625 7.125 3.125 C5.76761719 2.88136719 5.76761719 2.88136719 4.3828125 2.6328125 C2 2 2 2 0 0 Z " fill="#663FCA" transform="translate(603,631)"/>
<path d="M0 0 C0 0.99 0 1.98 0 3 C-1.96722008 4.38123963 -3.96868328 5.71488126 -6 7 C-6.33 7.66 -6.66 8.32 -7 9 C-7.78375 8.979375 -8.5675 8.95875 -9.375 8.9375 C-11.98114961 8.81315937 -11.98114961 8.81315937 -14 10 C-15.70702735 10.06996014 -17.41668003 10.08440154 -19.125 10.0625 C-20.03507813 10.05347656 -20.94515625 10.04445313 -21.8828125 10.03515625 C-22.58148437 10.02355469 -23.28015625 10.01195312 -24 10 C-20.81390139 8.21730197 -17.81163634 7.43950353 -14.25 6.6875 C-8.61730984 5.34835553 -4.69881419 3.34338702 0 0 Z " fill="#4F2CB1" transform="translate(671,567)"/>
<path d="M0 0 C0.99 0.33 1.98 0.66 3 1 C2.154375 1.61875 1.30875 2.2375 0.4375 2.875 C-5.38286877 7.70232007 -9.19388829 14.56065693 -13 21 C-13.33 20.34 -13.66 19.68 -14 19 C-10.82968046 11.70588135 -6.70864315 4.47242877 0 0 Z " fill="#4392FA" transform="translate(520,381)"/>
<path d="M0 0 C0.66 0 1.32 0 2 0 C2 0.66 2 1.32 2 2 C2.556875 2.20625 3.11375 2.4125 3.6875 2.625 C6.97012371 4.57683032 8.70673246 6.94230994 11 10 C11 10.66 11 11.32 11 12 C12.32 12.66 13.64 13.32 15 14 C14.67 14.99 14.34 15.98 14 17 C8.7937398 12.07858078 4.13750907 6.86042318 0 1 C0 0.67 0 0.34 0 0 Z " fill="#37CAFB" transform="translate(289,311)"/>
<path d="M0 0 C0.33 0 0.66 0 1 0 C1.9295755 7.13223833 2.00062829 13.95379676 1.5625 21.125 C1.51029297 22.08148437 1.45808594 23.03796875 1.40429688 24.0234375 C1.27636706 26.34943419 1.14151455 28.67479719 1 31 C0.67 31 0.34 31 0 31 C-0.16754147 26.90682137 -0.32810824 22.81343505 -0.48217773 18.71972656 C-0.53559149 17.32674778 -0.59092043 15.93384107 -0.64819336 14.54101562 C-0.73012069 12.54056398 -0.80462098 10.5398125 -0.87890625 8.5390625 C-0.9260376 7.33459473 -0.97316895 6.13012695 -1.02172852 4.88916016 C-1 2 -1 2 0 0 Z " fill="#8D59FE" transform="translate(741,527)"/>
<path d="M0 0 C0.78439453 0.17466797 1.56878906 0.34933594 2.37695312 0.52929688 C3.59995117 0.81450195 3.59995117 0.81450195 4.84765625 1.10546875 C5.65912109 1.28400391 6.47058594 1.46253906 7.30664062 1.64648438 C11.13293964 2.51595511 14.4331226 3.42854331 17.91015625 5.29296875 C14.4413266 6.4492453 13.68921359 6.08724564 10.34765625 4.91796875 C5.83949749 3.45496862 1.66385015 2.84814581 -3.05859375 2.6015625 C-5.08984375 2.29296875 -5.08984375 2.29296875 -7.08984375 0.29296875 C-3.95842179 -0.75083857 -3.08779782 -0.69335001 0 0 Z " fill="#6861F1" transform="translate(600.08984375,429.70703125)"/>
<path d="M0 0 C5.96260189 4.82082706 10.96679794 10.22494276 16 16 C15.67 16.66 15.34 17.32 15 18 C10.52190304 14.30902697 6.83414087 11.12844539 4 6 C2.37163262 4.2958946 0.71230248 2.61974559 -1 1 C-0.67 0.67 -0.34 0.34 0 0 Z " fill="#39A7FA" transform="translate(423,358)"/>
<path d="M0 0 C5.93409367 4.69782416 10.42451008 9.98649896 15 16 C12 16 12 16 9.75 14 C8.82388421 13.00874457 7.90856108 12.00737011 7 11 C6.37996094 10.33742188 5.75992187 9.67484375 5.12109375 8.9921875 C0 3.38484848 0 3.38484848 0 0 Z " fill="#39B6FA" transform="translate(408,341)"/>
<path d="M0 0 C3.74633486 1.24877829 5.41041797 3.06047445 8 6 C8 6.99 8 7.98 8 9 C9.32 9.33 10.64 9.66 12 10 C12.33 11.65 12.66 13.3 13 15 C8.20166566 11.12442226 3.57092523 7.07516114 0 2 C0 1.34 0 0.68 0 0 Z " fill="#35C4FB" transform="translate(304,328)"/>
<path d="M0 0 C-2.92965912 2.92965912 -5.680053 3.94133569 -9.8125 4.125 C-10.8953125 4.063125 -10.8953125 4.063125 -12 4 C-12 4.99 -12 5.98 -12 7 C-13.65 7 -15.3 7 -17 7 C-16 4 -16 4 -13.671875 2.83203125 C-12.70765625 2.49558594 -11.7434375 2.15914063 -10.75 1.8125 C-9.79609375 1.46832031 -8.8421875 1.12414062 -7.859375 0.76953125 C-5.08905165 0.02396609 -2.85063531 -0.15085479 0 0 Z " fill="#2D49C2" transform="translate(552,369)"/>
<path d="M0 0 C6.00185406 4.6843739 11.80573668 9.96948907 15 17 C13.72689688 16.06558465 12.456612 15.12732889 11.1875 14.1875 C10.47980469 13.66542969 9.77210938 13.14335937 9.04296875 12.60546875 C4.5933962 9.10876833 1.80845384 5.42536151 0 0 Z " fill="#464BD6" transform="translate(515,462)"/>
<path d="M0 0 C5.7809725 0.63065155 11.3443706 1.65155132 17 3 C15 5 15 5 12.125 5.25 C9.02817983 5.00225439 7.67261725 4.41982791 5 3 C3.00889599 2.61709538 1.00899487 2.27395385 -1 2 C-0.67 1.34 -0.34 0.68 0 0 Z " fill="#7367F5" transform="translate(618,435)"/>
<path d="M0 0 C4.77876954 4.6382175 9.29839447 9.4475917 13 15 C12.67 15.99 12.34 16.98 12 18 C11.46890625 17.26394531 10.9378125 16.52789063 10.390625 15.76953125 C9.68421875 14.79371094 8.9778125 13.81789063 8.25 12.8125 C7.55390625 11.84957031 6.8578125 10.88664063 6.140625 9.89453125 C4.7231914 7.97789202 3.25401067 6.09838186 1.734375 4.26171875 C0 2 0 2 0 0 Z " fill="#39168E" transform="translate(698,540)"/>
<path d="M0 0 C-2.16033504 1.12017372 -4.29327313 2.11444805 -6.5625 3 C-9.19059626 3.98451106 -9.19059626 3.98451106 -12 6 C-12.99 6 -13.98 6 -15 6 C-15 5.01 -15 4.02 -15 3 C-9.63560356 0.31780178 -5.98993047 -0.3152595 0 0 Z " fill="#36D7FD" transform="translate(540,306)"/>
<path d="M0 0 C3.2531655 3.74114033 5.44374911 8.31315138 7 13 C6.67 13.66 6.34 14.32 6 15 C5.67 14.01 5.34 13.02 5 12 C2.98491642 11.26676204 2.98491642 11.26676204 1 11 C1 10.01 1 9.02 1 8 C0.8503356 6.60224142 0.68279513 5.2063129 0.5 3.8125 C0.335 2.554375 0.17 1.29625 0 0 Z " fill="#3E5ED5" transform="translate(482,404)"/>
<path d="M0 0 C0.33 0 0.66 0 1 0 C2.40913826 5.63655304 1.73956036 8.44153116 -1.08984375 13.49609375 C-1.39019531 13.99238281 -1.69054687 14.48867188 -2 15 C-3.11563018 11.62953982 -2.86843709 9.25980759 -2.125 5.8125 C-1.94195313 4.93207031 -1.75890625 4.05164063 -1.5703125 3.14453125 C-1 1 -1 1 0 0 Z " fill="#3D1D99" transform="translate(683,543)"/>
<path d="M0 0 C1.70884005 1.62339805 3.37446717 3.29319053 5 5 C5 5.66 5 6.32 5 7 C5.61875 7.2475 6.2375 7.495 6.875 7.75 C9.35068687 9.20628639 9.95125002 10.37812506 11 13 C7.64138305 11.56590028 5.64125061 9.80630679 3.25 7.0625 C2.63640625 6.37285156 2.0228125 5.68320312 1.390625 4.97265625 C0 3 0 3 0 0 Z " fill="#5A61F2" transform="translate(455,496)"/>
<path d="M0 0 C-4.95 2.64 -9.9 5.28 -15 8 C-13.86280581 4.58841744 -12.95657056 3.88145399 -10 2 C-9.34 2 -8.68 2 -8 2 C-7.67 1.34 -7.34 0.68 -7 0 C-4 -1 -4 -1 0 0 Z " fill="#3EA6FA" transform="translate(538,373)"/>
<path d="M0 0 C4.04161955 1.34484714 6.38678154 3.0505162 9.3125 6.125 C10.00988281 6.84945312 10.70726562 7.57390625 11.42578125 8.3203125 C11.94527344 8.87460937 12.46476563 9.42890625 13 10 C12.67 10.66 12.34 11.32 12 12 C9.99698881 10.19073245 7.99751914 8.377813 6 6.5625 C5.42765625 6.04623047 4.8553125 5.52996094 4.265625 4.99804688 C2.82480421 3.6858708 1.41014216 2.34509096 0 1 C0 0.67 0 0.34 0 0 Z " fill="#9059FB" transform="translate(685,526)"/>
<path d="M0 0 C2.3129482 2.3129482 2.49580975 3.47904875 3.125 6.625 C3.29257812 7.44226563 3.46015625 8.25953125 3.6328125 9.1015625 C3.81457031 10.04128906 3.81457031 10.04128906 4 11 C3.01 11.495 3.01 11.495 2 12 C-1.57142857 4.71428571 -1.57142857 4.71428571 0 0 Z " fill="#845AF2" transform="translate(737,514)"/>
<path d="M0 0 C3.77545388 1.09068668 6.47043472 1.9083091 9 5 C6.69 5.33 4.38 5.66 2 6 C1.34 4.02 0.68 2.04 0 0 Z " fill="#4D2EA9" transform="translate(661,512)"/>
<path d="M0 0 C1.17825358 0.90172468 2.34231577 1.82201502 3.5 2.75 C4.1496875 3.26046875 4.799375 3.7709375 5.46875 4.296875 C7 6 7 6 7 10 C5.62437146 8.71034824 4.29233607 7.37310707 3 6 C3 5.34 3 4.68 3 4 C1.68 3.34 0.36 2.68 -1 2 C-0.67 1.34 -0.34 0.68 0 0 Z " fill="#38C2FB" transform="translate(400,332)"/>
<path d="M0 0 C0.99 0.33 1.98 0.66 3 1 C1.3790787 2.17232685 -0.24686833 3.3377077 -1.875 4.5 C-2.77992188 5.1496875 -3.68484375 5.799375 -4.6171875 6.46875 C-7 8 -7 8 -9 8 C-9 7.34 -9 6.68 -9 6 C-8.01 6 -7.02 6 -6 6 C-6 5.34 -6 4.68 -6 4 C-3.1875 1.8125 -3.1875 1.8125 0 0 Z " fill="#4D5EF2" transform="translate(347,604)"/>
<path d="M0 0 C2.0625 0.4375 2.0625 0.4375 4 1 C2.37829621 2.00533667 0.75252763 3.00411907 -0.875 4 C-2.23238281 4.8353125 -2.23238281 4.8353125 -3.6171875 5.6875 C-6 7 -6 7 -8 7 C-8 6.34 -8 5.68 -8 5 C-7.01 5 -6.02 5 -5 5 C-5 4.01 -5 3.02 -5 2 C-4.360625 1.855625 -3.72125 1.71125 -3.0625 1.5625 C-1.02454854 1.18992819 -1.02454854 1.18992819 0 0 Z " fill="#4E5CF2" transform="translate(317,622)"/>
<path d="M0 0 C1.1055189 0.93590504 2.20935453 1.87379858 3.3125 2.8125 C3.92738281 3.33457031 4.54226563 3.85664063 5.17578125 4.39453125 C6.85424679 5.87172469 8.43882034 7.40039131 10 9 C9.67 9.66 9.34 10.32 9 11 C8.401875 10.360625 7.80375 9.72125 7.1875 9.0625 C5.09189663 6.79689611 5.09189663 6.79689611 2 6 C0.8125 2.9375 0.8125 2.9375 0 0 Z " fill="#564BE4" transform="translate(538,488)"/>
<path d="M0 0 C1.13199353 0.9080162 2.25532363 1.82683826 3.375 2.75 C4.00148438 3.26046875 4.62796875 3.7709375 5.2734375 4.296875 C7.08312318 6.08199481 8.00117455 7.67949644 9 10 C5.48200238 8.04555688 2.60791131 6.09085785 0 3 C0 2.01 0 1.02 0 0 Z " fill="#6851EB" transform="translate(548,499)"/>
<path d="M0 0 C0.66 0.33 1.32 0.66 2 1 C0.90716423 2.03295436 -0.19970579 3.05107835 -1.3125 4.0625 C-1.92738281 4.63097656 -2.54226563 5.19945312 -3.17578125 5.78515625 C-3.77777344 6.18605469 -4.37976563 6.58695312 -5 7 C-5.99 6.67 -6.98 6.34 -8 6 C-7.67 5.01 -7.34 4.02 -7 3 C-4 1.875 -4 1.875 -1 1 C-0.67 0.67 -0.34 0.34 0 0 Z " fill="#3DAFF8" transform="translate(728,333)"/>
<path d="M0 0 C2.31 1.98 4.62 3.96 7 6 C6.67 6.99 6.34 7.98 6 9 C1.125 4.5 1.125 4.5 0 0 Z " fill="#36C7FB" transform="translate(392,323)"/>
<path d="M0 0 C4.98012761 1.50912958 8.24259942 4.55661849 12 8 C8.21516391 8 7.22592069 6.89417485 4.3125 4.5625 C3.50425781 3.92441406 2.69601562 3.28632812 1.86328125 2.62890625 C1.24839844 2.09136719 0.63351562 1.55382812 0 1 C0 0.67 0 0.34 0 0 Z " fill="#9059F8" transform="translate(673,517)"/>
<path d="M0 0 C3.59391114 1.33488128 6.75490696 2.96022723 10 5 C9.67 5.66 9.34 6.32 9 7 C6.62051228 6.82374165 5.29774151 6.30280227 3.62109375 4.59765625 C2.37884514 3.09350908 1.18623944 1.54870149 0 0 Z " fill="#8661F8" transform="translate(686,457)"/>
<path d="M0 0 C1.15224028 0.92961422 2.29659176 1.8690125 3.4375 2.8125 C4.07558594 3.33457031 4.71367187 3.85664063 5.37109375 4.39453125 C7 6 7 6 8 9 C4.63704165 7.55873214 2.37072898 5.79407345 0 3 C0 2.01 0 1.02 0 0 Z " fill="#3C96F9" transform="translate(448,386)"/>
<path d="M0 0 C2 0 2 0 3.5078125 1.4609375 C4.04148437 2.09257812 4.57515625 2.72421875 5.125 3.375 C5.66382813 4.00148438 6.20265625 4.62796875 6.7578125 5.2734375 C8 7 8 7 8 9 C4.20620942 7.50958227 2.31656242 5.30937488 0 2 C0 1.34 0 0.68 0 0 Z " fill="#3B9DF8" transform="translate(440,377)"/>
<path d="M0 0 C1.46067199 0.45082469 2.91848032 0.91093537 4.375 1.375 C5.18710937 1.63023437 5.99921875 1.88546875 6.8359375 2.1484375 C9 3 9 3 11 5 C11 5.66 11 6.32 11 7 C7.22272911 5.18690997 3.62730178 3.0926741 0 1 C0 0.67 0 0.34 0 0 Z " fill="#5539B6" transform="translate(651,507)"/>
<path d="M0 0 C0.33 0 0.66 0 1 0 C1.33 3.3 1.66 6.6 2 10 C1.01 9.67 0.02 9.34 -1 9 C-1.125 2.25 -1.125 2.25 0 0 Z " fill="#8158F1" transform="translate(741,527)"/>
<path d="M0 0 C1.875 0.3125 1.875 0.3125 4 1 C4.66 1.99 5.32 2.98 6 4 C5.67 4.99 5.34 5.98 5 7 C3.29115995 5.37660195 1.62553283 3.70680947 0 2 C0 1.34 0 0.68 0 0 Z " fill="#37B5FA" transform="translate(339,368)"/>
<path d="M0 0 C0 3 0 3 -1.3125 4.38671875 C-2.875 5.59114583 -4.4375 6.79557292 -6 8 C-6.33 6.68 -6.66 5.36 -7 4 C-5.824375 3.566875 -5.824375 3.566875 -4.625 3.125 C-1.90328368 2.15087746 -1.90328368 2.15087746 0 0 Z " fill="#4D28AF" transform="translate(711,612)"/>
<path d="M0 0 C0.66 0.33 1.32 0.66 2 1 C2.25 7.625 2.25 7.625 0 11 C0.33 9.02 0.66 7.04 1 5 C0.34 5 -0.32 5 -1 5 C-0.67 3.35 -0.34 1.7 0 0 Z " fill="#5833B9" transform="translate(680,543)"/>
<path d="M0 0 C5.875 4.625 5.875 4.625 7 8 C6.34 8 5.68 8 5 8 C5 7.34 5 6.68 5 6 C4.01 6 3.02 6 2 6 C0 3 0 3 0 0 Z " fill="#3F82F4" transform="translate(465,405)"/>
<path d="M0 0 C2.64 0 5.28 0 8 0 C6.68 0.33 5.36 0.66 4 1 C4.33 2.32 4.66 3.64 5 5 C4.01 5 3.02 5 2 5 C1.34 3.35 0.68 1.7 0 0 Z " fill="#33D9FC" transform="translate(284,304)"/>
<path d="M0 0 C0.66 0.99 1.32 1.98 2 3 C1.01 4.32 0.02 5.64 -1 7 C-1.66 6.67 -2.32 6.34 -3 6 C-2.625 3.5625 -2.625 3.5625 -2 1 C-1.34 0.67 -0.68 0.34 0 0 Z " fill="#7544F0" transform="translate(720,602)"/>
<path d="M0 0 C2.31 1.98 4.62 3.96 7 6 C6.67 6.66 6.34 7.32 6 8 C3.69 6.02 1.38 4.04 -1 2 C-0.67 1.34 -0.34 0.68 0 0 Z " fill="#3AA2FA" transform="translate(341,404)"/>
<path d="M0 0 C6.57142857 5.14285714 6.57142857 5.14285714 8 9 C3.96189555 7.65396518 2.52704924 5.34663277 0 2 C0 1.34 0 0.68 0 0 Z " fill="#39A4F9" transform="translate(333,395)"/>
<path d="M0 0 C0.66 0.33 1.32 0.66 2 1 C0.02 3.31 -1.96 5.62 -4 8 C-4.66 7.67 -5.32 7.34 -6 7 C-4.02 4.69 -2.04 2.38 0 0 Z " fill="#232AA8" transform="translate(519,384)"/>
<path d="M0 0 C2.64 1.98 5.28 3.96 8 6 C7.67 6.99 7.34 7.98 7 9 C5.82737096 7.88121617 4.66204862 6.75476949 3.5 5.625 C2.8503125 4.99851562 2.200625 4.37203125 1.53125 3.7265625 C0 2 0 2 0 0 Z " fill="#389FF7" transform="translate(352,383)"/>
<path d="M0 0 C3.40312738 1.05875074 6.01353231 2.00902154 9 4 C8.67 4.66 8.34 5.32 8 6 C4.74456771 5.65120368 3.98126893 4.97866739 1.75 2.4375 C1.1725 1.633125 0.595 0.82875 0 0 Z " fill="#7548E9" transform="translate(575,616)"/>
<path d="M0 0 C0.99 0.33 1.98 0.66 3 1 C3 3.31 3 5.62 3 8 C0.37613513 4.93882432 0 4.26826873 0 0 Z " fill="#401F9C" transform="translate(679,532)"/>
<path d="M0 0 C2.64 0.33 5.28 0.66 8 1 C7.67 1.99 7.34 2.98 7 4 C4.97954558 3.39816251 2.97888961 2.72693904 1 2 C0.67 1.34 0.34 0.68 0 0 Z " fill="#524FF7" transform="translate(519,491)"/>
<path d="M0 0 C0.99 0.33 1.98 0.66 3 1 C3 1.66 3 2.32 3 3 C4.32 3.66 5.64 4.32 7 5 C7 5.66 7 6.32 7 7 C4.13302508 5.71480435 2.02392288 4.42870746 0 2 C0 1.34 0 0.68 0 0 Z " fill="#3F88F4" transform="translate(393,429)"/>
<path d="M0 0 C0.66 0 1.32 0 2 0 C2 0.66 2 1.32 2 2 C1.34 2 0.68 2 0 2 C0 1.34 0 0.68 0 0 Z " fill="#495FE2" transform="translate(498,437)"/>
<path d="" fill="#4D90F7" transform="translate(0,0)"/>
<path d="" fill="#6648C6" transform="translate(0,0)"/>
<path d="M0 0 C2 1 2 1 2 1 Z " fill="#5B39BB" transform="translate(667,568)"/>
<path d="M0 0 C2 1 2 1 2 1 Z " fill="#613BC6" transform="translate(672,534)"/>
<path d="M0 0 C2 1 2 1 2 1 Z " fill="#7C54E6" transform="translate(650,509)"/>
<path d="M0 0 C2 1 2 1 2 1 Z " fill="#6959E6" transform="translate(576,487)"/>
<path d="M0 0 C2 1 2 1 2 1 Z " fill="#6C56E7" transform="translate(570,485)"/>
<path d="M0 0 C2 1 2 1 2 1 Z " fill="#524FDC" transform="translate(532,468)"/>
<path d="" fill="#4659DD" transform="translate(0,0)"/>
<path d="" fill="#488CFB" transform="translate(0,0)"/>
<path d="" fill="#4C97F7" transform="translate(0,0)"/>
<path d="" fill="#489BF7" transform="translate(0,0)"/>
<path d="" fill="#4270E3" transform="translate(0,0)"/>
<path d="" fill="#49A0F8" transform="translate(0,0)"/>
<path d="M0 0 C2 1 2 1 2 1 Z " fill="#478AED" transform="translate(550,371)"/>
<path d="M0 0 C2 1 2 1 2 1 Z " fill="#4CC8F3" transform="translate(282,307)"/>
<path d="" fill="#676C7F" transform="translate(0,0)"/>
<path d="" fill="#696F82" transform="translate(0,0)"/>
<path d="" fill="#686B81" transform="translate(0,0)"/>
<path d="" fill="#6B6E84" transform="translate(0,0)"/>
<path d="" fill="#686B7F" transform="translate(0,0)"/>
<path d="" fill="#6B6F84" transform="translate(0,0)"/>
<path d="" fill="#6B6E81" transform="translate(0,0)"/>
<path d="" fill="#696E85" transform="translate(0,0)"/>
<path d="" fill="#6B7085" transform="translate(0,0)"/>
<path d="" fill="#6B7085" transform="translate(0,0)"/>
<path d="" fill="#5C6271" transform="translate(0,0)"/>
<path d="" fill="#5E6271" transform="translate(0,0)"/>
<path d="" fill="#666A7C" transform="translate(0,0)"/>
<path d="" fill="#6D7184" transform="translate(0,0)"/>
<path d="" fill="#6B6F85" transform="translate(0,0)"/>
<path d="" fill="#666B7D" transform="translate(0,0)"/>
<path d="" fill="#6C7286" transform="translate(0,0)"/>
<path d="" fill="#696D81" transform="translate(0,0)"/>
<path d="" fill="#5F6476" transform="translate(0,0)"/>
<path d="" fill="#636779" transform="translate(0,0)"/>
<path d="" fill="#62667A" transform="translate(0,0)"/>
<path d="" fill="#6A7083" transform="translate(0,0)"/>
<path d="" fill="#616777" transform="translate(0,0)"/>
<path d="" fill="#666B7D" transform="translate(0,0)"/>
<path d="" fill="#6A6E83" transform="translate(0,0)"/>
<path d="" fill="#666B7E" transform="translate(0,0)"/>
<path d="" fill="#626678" transform="translate(0,0)"/>
<path d="" fill="#656A7C" transform="translate(0,0)"/>
<path d="" fill="#676B7E" transform="translate(0,0)"/>
<path d="" fill="#6B6F86" transform="translate(0,0)"/>
<path d="" fill="#6F7286" transform="translate(0,0)"/>
<path d="" fill="#6D7389" transform="translate(0,0)"/>
<path d="" fill="#6E7288" transform="translate(0,0)"/>
<path d="" fill="#636677" transform="translate(0,0)"/>
<path d="" fill="#686C7F" transform="translate(0,0)"/>
<path d="" fill="#6F7487" transform="translate(0,0)"/>
<path d="" fill="#6E7389" transform="translate(0,0)"/>
<path d="" fill="#666C7F" transform="translate(0,0)"/>
<path d="" fill="#606575" transform="translate(0,0)"/>
<path d="" fill="#616676" transform="translate(0,0)"/>
<path d="" fill="#65677B" transform="translate(0,0)"/>
<path d="" fill="#686C80" transform="translate(0,0)"/>
<path d="" fill="#686E7F" transform="translate(0,0)"/>
<path d="" fill="#6C7187" transform="translate(0,0)"/>
<path d="" fill="#707487" transform="translate(0,0)"/>
<path d="" fill="#6F758B" transform="translate(0,0)"/>
<path d="" fill="#6E7488" transform="translate(0,0)"/>
<path d="" fill="#70748A" transform="translate(0,0)"/>
<path d="" fill="#6C7186" transform="translate(0,0)"/>
<path d="" fill="#666A7C" transform="translate(0,0)"/>
<path d="" fill="#666B7D" transform="translate(0,0)"/>
<path d="" fill="#6A6D80" transform="translate(0,0)"/>
<path d="" fill="#6F7487" transform="translate(0,0)"/>
<path d="" fill="#72758D" transform="translate(0,0)"/>
<path d="" fill="#70788B" transform="translate(0,0)"/>
<path d="" fill="#6F748B" transform="translate(0,0)"/>
<path d="" fill="#6A7183" transform="translate(0,0)"/>
<path d="" fill="#6B6F84" transform="translate(0,0)"/>
<path d="" fill="#71758C" transform="translate(0,0)"/>
<path d="" fill="#71768C" transform="translate(0,0)"/>
<path d="" fill="#72768C" transform="translate(0,0)"/>
<path d="" fill="#70758B" transform="translate(0,0)"/>
<path d="" fill="#6A6F80" transform="translate(0,0)"/>
<path d="" fill="#737A90" transform="translate(0,0)"/>
<path d="" fill="#71768C" transform="translate(0,0)"/>
<path d="" fill="#666B7E" transform="translate(0,0)"/>
<path d="" fill="#6F768A" transform="translate(0,0)"/>
<path d="" fill="#6F7388" transform="translate(0,0)"/>
<path d="" fill="#686D7E" transform="translate(0,0)"/>
<path d="" fill="#767A91" transform="translate(0,0)"/>
<path d="" fill="#757A93" transform="translate(0,0)"/>
<path d="" fill="#757993" transform="translate(0,0)"/>
<path d="" fill="#757992" transform="translate(0,0)"/>
<path d="" fill="#797C99" transform="translate(0,0)"/>
<path d="" fill="#787B97" transform="translate(0,0)"/>
<path d="" fill="#7A7D97" transform="translate(0,0)"/>
<path d="" fill="#797D9A" transform="translate(0,0)"/>
<path d="" fill="#6E7387" transform="translate(0,0)"/>
<path d="" fill="#6F7588" transform="translate(0,0)"/>
<path d="" fill="#7A7F99" transform="translate(0,0)"/>
<path d="" fill="#777A93" transform="translate(0,0)"/>
<path d="" fill="#7D7EA5" transform="translate(0,0)"/>
<path d="" fill="#7A7F9F" transform="translate(0,0)"/>
<path d="" fill="#7882AE" transform="translate(0,0)"/>
<path d="" fill="#787C98" transform="translate(0,0)"/>
<path d="" fill="#787C99" transform="translate(0,0)"/>
<path d="" fill="#6545C3" transform="translate(0,0)"/>
<path d="" fill="#6446BE" transform="translate(0,0)"/>
<path d="" fill="#7756D2" transform="translate(0,0)"/>
<path d="" fill="#7453D7" transform="translate(0,0)"/>
<path d="" fill="#8081A3" transform="translate(0,0)"/>
<path d="" fill="#787C98" transform="translate(0,0)"/>
<path d="" fill="#5A6CED" transform="translate(0,0)"/>
<path d="" fill="#684AC6" transform="translate(0,0)"/>
<path d="" fill="#684AC6" transform="translate(0,0)"/>
<path d="" fill="#6848C8" transform="translate(0,0)"/>
<path d="" fill="#694DC9" transform="translate(0,0)"/>
<path d="" fill="#775BDD" transform="translate(0,0)"/>
<path d="" fill="#8161E4" transform="translate(0,0)"/>
<path d="" fill="#5B70F0" transform="translate(0,0)"/>
<path d="" fill="#8261EA" transform="translate(0,0)"/>
<path d="" fill="#7960EB" transform="translate(0,0)"/>
<path d="" fill="#5775F6" transform="translate(0,0)"/>
<path d="" fill="#6640C4" transform="translate(0,0)"/>
<path d="" fill="#6741C9" transform="translate(0,0)"/>
<path d="" fill="#7C66EA" transform="translate(0,0)"/>
<path d="" fill="#5C37BB" transform="translate(0,0)"/>
<path d="" fill="#5735B8" transform="translate(0,0)"/>
<path d="" fill="#5936BA" transform="translate(0,0)"/>
<path d="" fill="#5A36B9" transform="translate(0,0)"/>
<path d="" fill="#7164F0" transform="translate(0,0)"/>
<path d="" fill="#5C38BC" transform="translate(0,0)"/>
<path d="" fill="#7165EE" transform="translate(0,0)"/>
<path d="" fill="#5D39C3" transform="translate(0,0)"/>
<path d="" fill="#603BC6" transform="translate(0,0)"/>
<path d="" fill="#8967F3" transform="translate(0,0)"/>
<path d="" fill="#663FCD" transform="translate(0,0)"/>
<path d="" fill="#7D5AEF" transform="translate(0,0)"/>
<path d="" fill="#6A69F3" transform="translate(0,0)"/>
<path d="" fill="#5184F7" transform="translate(0,0)"/>
<path d="" fill="#8C68F2" transform="translate(0,0)"/>
<path d="" fill="#666BF5" transform="translate(0,0)"/>
<path d="" fill="#7852E2" transform="translate(0,0)"/>
<path d="" fill="#7D56E8" transform="translate(0,0)"/>
<path d="" fill="#7E5BEC" transform="translate(0,0)"/>
<path d="" fill="#7E60EC" transform="translate(0,0)"/>
<path d="" fill="#795CEF" transform="translate(0,0)"/>
<path d="" fill="#7A5DEC" transform="translate(0,0)"/>
<path d="" fill="#6D57E9" transform="translate(0,0)"/>
<path d="" fill="#6A59E6" transform="translate(0,0)"/>
<path d="" fill="#5A56E3" transform="translate(0,0)"/>
<path d="" fill="#5753E0" transform="translate(0,0)"/>
<path d="" fill="#5552DC" transform="translate(0,0)"/>
<path d="" fill="#8289B5" transform="translate(0,0)"/>
<path d="" fill="#534FDC" transform="translate(0,0)"/>
<path d="" fill="#514FDA" transform="translate(0,0)"/>
<path d="" fill="#4D56DF" transform="translate(0,0)"/>
<path d="" fill="#4B7FF5" transform="translate(0,0)"/>
<path d="" fill="#499DF7" transform="translate(0,0)"/>
<path d="" fill="#4A58DF" transform="translate(0,0)"/>
<path d="" fill="#4B59DC" transform="translate(0,0)"/>
<path d="" fill="#4A5ADF" transform="translate(0,0)"/>
<path d="" fill="#4D5DE3" transform="translate(0,0)"/>
<path d="" fill="#7E86A5" transform="translate(0,0)"/>
<path d="" fill="#8475FA" transform="translate(0,0)"/>
<path d="" fill="#7E76F3" transform="translate(0,0)"/>
<path d="" fill="#4867E8" transform="translate(0,0)"/>
<path d="" fill="#4A65E5" transform="translate(0,0)"/>
<path d="" fill="#4A6DED" transform="translate(0,0)"/>
<path d="" fill="#486BE9" transform="translate(0,0)"/>
<path d="" fill="#496DE9" transform="translate(0,0)"/>
<path d="" fill="#4C6CEA" transform="translate(0,0)"/>
<path d="" fill="#686DF0" transform="translate(0,0)"/>
<path d="" fill="#4A6FEB" transform="translate(0,0)"/>
<path d="" fill="#4C79EE" transform="translate(0,0)"/>
<path d="" fill="#47ADF8" transform="translate(0,0)"/>
<path d="" fill="#4B5BD9" transform="translate(0,0)"/>
<path d="" fill="#4B7EF7" transform="translate(0,0)"/>
<path d="" fill="#4982F3" transform="translate(0,0)"/>
<path d="" fill="#4B85F7" transform="translate(0,0)"/>
<path d="" fill="#3D4FD2" transform="translate(0,0)"/>
<path d="" fill="#3DAAFA" transform="translate(0,0)"/>
<path d="" fill="#3D57D0" transform="translate(0,0)"/>
<path d="" fill="#3C5ED6" transform="translate(0,0)"/>
<path d="" fill="#3D5BD5" transform="translate(0,0)"/>
<path d="" fill="#3C59D2" transform="translate(0,0)"/>
<path d="" fill="#4C91F7" transform="translate(0,0)"/>
<path d="" fill="#3C5CD4" transform="translate(0,0)"/>
<path d="" fill="#3EABFB" transform="translate(0,0)"/>
<path d="" fill="#3EB5FC" transform="translate(0,0)"/>
<path d="" fill="#406DE2" transform="translate(0,0)"/>
<path d="" fill="#4B9CF7" transform="translate(0,0)"/>
<path d="" fill="#40B7FB" transform="translate(0,0)"/>
<path d="" fill="#42B6F9" transform="translate(0,0)"/>
<path d="" fill="#448BEA" transform="translate(0,0)"/>
<path d="" fill="#4588EC" transform="translate(0,0)"/>
<path d="" fill="#4485ED" transform="translate(0,0)"/>
<path d="" fill="#40BBFE" transform="translate(0,0)"/>
<path d="" fill="#4D94F2" transform="translate(0,0)"/>
<path d="" fill="#45AEFA" transform="translate(0,0)"/>
<path d="" fill="#41B9FD" transform="translate(0,0)"/>
<path d="" fill="#4AACF6" transform="translate(0,0)"/>
<path d="" fill="#4EB1F9" transform="translate(0,0)"/>
<path d="" fill="#75839A" transform="translate(0,0)"/>
<path d="" fill="#7B95B6" transform="translate(0,0)"/>
<path d="" fill="#44BEFA" transform="translate(0,0)"/>
<path d="" fill="#42CBFA" transform="translate(0,0)"/>
<path d="" fill="#42CBFB" transform="translate(0,0)"/>
<path d="" fill="#41CEF8" transform="translate(0,0)"/>
<path d="" fill="#4BCAF3" transform="translate(0,0)"/>
<path d="" fill="#4DC8F4" transform="translate(0,0)"/>
<path d="" fill="#49CAF3" transform="translate(0,0)"/>
<path d="" fill="#47CFF7" transform="translate(0,0)"/>
<path d="" fill="#778CA3" transform="translate(0,0)"/>
<path d="" fill="#748297" transform="translate(0,0)"/>
<path d="" fill="#7A9AB0" transform="translate(0,0)"/>
<path d="" fill="#738196" transform="translate(0,0)"/>
<path d="" fill="#7A92A9" transform="translate(0,0)"/>
<path d="" fill="#6F7C8E" transform="translate(0,0)"/>
<path d="" fill="#687182" transform="translate(0,0)"/>
<path d="" fill="#6C7487" transform="translate(0,0)"/>
<path d="" fill="#728092" transform="translate(0,0)"/>
<path d="" fill="#77869B" transform="translate(0,0)"/>
<path d="" fill="#77889D" transform="translate(0,0)"/>
<path d="" fill="#6D7588" transform="translate(0,0)"/>
<path d="" fill="#78879B" transform="translate(0,0)"/>
<path d="" fill="#616A7B" transform="translate(0,0)"/>
<path d="" fill="#686F80" transform="translate(0,0)"/>
<path d="" fill="#676E7F" transform="translate(0,0)"/>
<path d="" fill="#63697B" transform="translate(0,0)"/>
<path d="" fill="#737F92" transform="translate(0,0)"/>
<path d="" fill="#768296" transform="translate(0,0)"/>
<path d="" fill="#666C7F" transform="translate(0,0)"/>
<path d="" fill="#78859A" transform="translate(0,0)"/>
</svg>
